{
.appVersion = "1057";
copyright = "Copyright 2017 Google Inc. All Rights Reserved.";
customParameters = (
{
name = glyphOrder;
value = (
.notdef,
NULL,
CR,
space,
uni00A0,
uni1903,
uni1904,
uni1905,
uni1906,
uni1907,
uni1908,
uni1909,
uni190A,
uni190B,
uni190C,
uni190D,
uni190E,
uni190F,
uni1910,
uni1911,
uni1912,
uni1913,
uni1914,
uni1915,
uni1916,
uni1917,
uni1918,
uni1919,
uni191A,
uni191B,
uni191C,
uni191D,
uni191E,
uni1920,
uni1921,
uni1922,
uni1923,
uni1924,
uni1925,
uni1926,
uni1927,
uni1928,
uni1929,
uni192A,
uni192B,
uni1930,
uni1931,
uni1932,
uni1933,
uni1934,
uni1935,
uni1936,
uni1937,
uni1938,
uni1939,
uni193A,
uni193B,
uni1940,
uni1944,
uni1945,
uni1946,
uni1947,
uni1948,
uni1949,
uni194A,
uni194B,
uni194C,
uni194D,
uni194E,
uni194F,
doubledanda,
uni1902,
uni1900,
uni1901,
uni192A1922,
uni200B,
uni200C,
uni200D,
uni25CC
);
},
{
name = description;
value = "Designed by Monotype design team.";
},
{
name = license;
value = "This Font Software is licensed under the SIL Open Font License, Version 1.1. This Font Software is distributed on an \"AS IS\" BASIS, WITHOUT WARRANTIES OR CONDITIONS OF ANY KIND, either express or implied. See the SIL Open Font License for the specific language, permissions and limitations governing your use of this Font Software.";
},
{
name = licenseURL;
value = "http://scripts.sil.org/OFL";
},
{
name = vendorID;
value = GOOG;
},
{
name = unicodeRanges;
value = (
0,
1,
15,
31,
45,
93
);
},
{
name = trademark;
value = "Noto is a trademark of Google Inc.";
},
{
name = "Has WWS Names";
value = 1;
},
{
name = versionString;
value = "Version 2.000";
},
{
name = fsType;
value = (
);
},
{
name = codePageRanges;
value = (
"1252"
);
},
{
name = "Don't use Production Names";
value = 1;
}
);
date = "2017-05-03 13:56:22 +0000";
designer = "Monotype Design Team";
designerURL = "http://www.monotype.com/studio";
disablesAutomaticAlignment = 1;
disablesNiceNames = 1;
familyName = "Noto Sans Limbu";
fontMaster = (
{
alignmentZones = (

glyphs = (
{
glyphname = .notdef;
lastChange = "2017-09-12 16:02:21 +0000";
layers = (
{
layerId = UUID0;
paths = (
{
closed = 1;
nodes = (
"505 0 LINE",
"505 714 LINE",
"94 714 LINE",
"94 0 LINE"
);
},
{
closed = 1;
nodes = (
"145 663 LINE",
"454 663 LINE",
"454 51 LINE",
"145 51 LINE"
);
}
);
width = 600;
}
);
},
{
glyphname = uni1903;
lastChange = "2017-09-12 16:02:21 +0000";
layers = (
{
layerId = UUID0;
paths = (
{
closed = 1;
nodes = (
"441 -7 OFFCURVE",
"498 84 OFFCURVE",
"498 165 CURVE SMOOTH",
"498 217 OFFCURVE",
"475 291 OFFCURVE",
"360 331 CURVE",
"429 392 OFFCURVE",
"505 469 OFFCURVE",
"556 576 CURVE",
"495 576 LINE",
"443 479 OFFCURVE",
"368 407 OFFCURVE",
"299 346 CURVE",
"259 354 OFFCURVE",
"211 358 OFFCURVE",
"155 358 CURVE SMOOTH",
"153 358 OFFCURVE",
"150 358 OFFCURVE",
"146 358 CURVE",
"251 544 LINE",
"260 576 LINE",
"49 576 LINE",
"24 504 LINE",
"181 504 LINE",
"73 312 LINE",
"67 281 LINE",
"84 284 OFFCURVE",
"106 286 OFFCURVE",
"122 286 CURVE SMOOTH",
"161 286 OFFCURVE",
"194 284 OFFCURVE",
"224 281 CURVE",
"165 229 OFFCURVE",
"123 182 OFFCURVE",
"123 127 CURVE SMOOTH",
"123 44 OFFCURVE",
"179 -7 OFFCURVE",
"303 -7 CURVE SMOOTH"
);
},
{
closed = 1;
nodes = (
"226 65 OFFCURVE",
"187 98 OFFCURVE",
"187 140 CURVE SMOOTH",
"187 182 OFFCURVE",
"230 221 OFFCURVE",
"289 271 CURVE",
"399 245 OFFCURVE",
"416 194 OFFCURVE",
"416 165 CURVE SMOOTH",
"416 94 OFFCURVE",
"359 65 OFFCURVE",
"296 65 CURVE SMOOTH"
);
}
);
width = 595;
}
);
unicode = 1903;
},
{
glyphname = uni1904;
lastChange = "2017-09-12 16:02:21 +0000";
layers = (
{
layerId = UUID0;
paths = (
{
closed = 1;
nodes = (
"529 20 LINE",
"529 576 LINE",
"49 576 LINE",
"24 504 LINE",
"104 504 LINE",
"104 346 LINE SMOOTH",
"104 200 OFFCURVE",
"177 162 OFFCURVE",
"258 162 CURVE SMOOTH",
"342 162 OFFCURVE",
"408 210 OFFCURVE",
"449 252 CURVE",
"449 -5 LINE"
);
},
{
closed = 1;
nodes = (
"243 234 OFFCURVE",
"184 239 OFFCURVE",
"184 366 CURVE SMOOTH",
"184 504 LINE",
"449 504 LINE",
"449 306 LINE",
"416 268 OFFCURVE",
"366 234 OFFCURVE",
"290 234 CURVE SMOOTH"
);
}
);
width = 602;
}
);
unicode = 1904;
},
{
glyphname = uni1905;
lastChange = "2017-09-12 16:02:21 +0000";
layers = (
{
layerId = UUID0;
paths = (
{
closed = 1;
nodes = (
"601 -7 OFFCURVE",
"685 88 OFFCURVE",
"685 206 CURVE SMOOTH",
"685 326 OFFCURVE",
"553 373 OFFCURVE",
"438 373 CURVE",
"616 542 LINE",
"623 576 LINE",
"194 576 LINE",
"169 504 LINE",
"512 504 LINE",
"355 354 LINE",
"351 321 LINE",
"379 322 OFFCURVE",
"389 324 OFFCURVE",
"402 324 CURVE SMOOTH",
"528 324 OFFCURVE",
"603 287 OFFCURVE",
"603 206 CURVE SMOOTH",
"603 85 OFFCURVE",
"493 65 OFFCURVE",
"406 65 CURVE SMOOTH",
"259 65 OFFCURVE",
"89 188 OFFCURVE",
"89 438 CURVE SMOOTH",
"89 480 OFFCURVE",
"91 499 OFFCURVE",
"95 517 CURVE",
"46 531 LINE",
"42 507 OFFCURVE",
"39 477 OFFCURVE",
"39 433 CURVE SMOOTH",
"39 168 OFFCURVE",
"206 -7 OFFCURVE",
"420 -7 CURVE SMOOTH"
);
},
{
closed = 1;
nodes = (
"859 344 OFFCURVE",
"897 405 OFFCURVE",
"897 470 CURVE SMOOTH",
"897 536 OFFCURVE",
"854 583 OFFCURVE",
"783 583 CURVE SMOOTH",
"707 583 OFFCURVE",
"658 529 OFFCURVE",
"658 463 CURVE SMOOTH",
"658 398 OFFCURVE",
"708 344 OFFCURVE",
"780 344 CURVE SMOOTH"
);
},
{
closed = 1;
nodes = (
"747 404 OFFCURVE",
"721 428 OFFCURVE",
"721 465 CURVE SMOOTH",
"721 505 OFFCURVE",
"740 536 OFFCURVE",
"786 536 CURVE SMOOTH",
"820 536 OFFCURVE",
"847 515 OFFCURVE",
"847 475 CURVE SMOOTH",
"847 438 OFFCURVE",
"830 404 OFFCURVE",
"785 404 CURVE SMOOTH"
);
}
);
width = 927;
}
);
unicode = 1905;
},
{
glyphname = uni1906;
lastChange = "2017-09-12 16:02:21 +0000";
layers = (
{
layerId = UUID0;
paths = (
{
closed = 1;
nodes = (
"281 42 OFFCURVE",
"385 186 OFFCURVE",
"385 332 CURVE SMOOTH",
"385 484 OFFCURVE",
"277 576 OFFCURVE",
"101 576 CURVE SMOOTH",
"49 576 LINE",
"24 504 LINE",
"93 504 LINE SMOOTH",
"240 504 OFFCURVE",
"303 431 OFFCURVE",
"303 305 CURVE SMOOTH",
"303 255 OFFCURVE",
"297 185 OFFCURVE",
"250 139 CURVE",
"250 143 OFFCURVE",
"252 155 OFFCURVE",
"252 159 CURVE SMOOTH",
"252 214 OFFCURVE",
"212 263 OFFCURVE",
"144 263 CURVE SMOOTH",
"81 263 OFFCURVE",
"29 211 OFFCURVE",
"29 152 CURVE SMOOTH",
"29 82 OFFCURVE",
"85 42 OFFCURVE",
"139 42 CURVE SMOOTH"
);
},
{
closed = 1;
nodes = (
"119 109 OFFCURVE",
"101 129 OFFCURVE",
"101 160 CURVE SMOOTH",
"101 183 OFFCURVE",
"118 210 OFFCURVE",
"150 210 CURVE SMOOTH",
"177 210 OFFCURVE",
"200 192 OFFCURVE",
"200 160 CURVE SMOOTH",
"200 127 OFFCURVE",
"175 109 OFFCURVE",
"151 109 CURVE SMOOTH"
);
},
{
closed = 1;
nodes = (
"554 20 LINE",
"554 581 LINE",
"474 557 LINE",
"474 -5 LINE"
);
}
);
width = 627;
}
);
unicode = 1906;
},
{
glyphname = uni1907;
lastChange = "2017-09-12 16:02:21 +0000";
layers = (
{
layerId = UUID0;
paths = (
{
closed = 1;
nodes = (
"461 -7 OFFCURVE",
"570 100 OFFCURVE",
"603 146 CURVE",
"575 171 LINE",
"480 83 OFFCURVE",
"396 65 OFFCURVE",
"306 65 CURVE SMOOTH",
"182 65 OFFCURVE",
"123 135 OFFCURVE",
"123 234 CURVE SMOOTH",
"123 261 OFFCURVE",
"126 288 OFFCURVE",
"135 313 CURVE",
"327 313 LINE",
"248 212 LINE",
"245 192 LINE",
"446 192 LINE",
"488 264 LINE",
"347 264 LINE",
"426 366 LINE",
"428 386 LINE",
"171 386 LINE",
"202 429 OFFCURVE",
"250 469 OFFCURVE",
"317 504 CURVE",
"576 504 LINE",
"601 576 LINE",
"63 576 LINE",
"39 504 LINE",
"230 504 LINE",
"101 434 OFFCURVE",
"39 326 OFFCURVE",
"39 226 CURVE SMOOTH",
"39 106 OFFCURVE",
"117 -7 OFFCURVE",
"308 -7 CURVE SMOOTH"
);
}
);
width = 632;
}
);
unicode = 1907;
},
{
glyphname = uni1908;
lastChange = "2017-09-12 16:02:21 +0000";
layers = (
{
layerId = UUID0;
paths = (
{
closed = 1;
nodes = (
"602 20 LINE",
"602 576 LINE",
"49 576 LINE",
"24 504 LINE",
"522 504 LINE",
"522 -5 LINE"
);
},
{
closed = 1;
nodes = (
"362 92 OFFCURVE",
"457 149 OFFCURVE",
"457 270 CURVE SMOOTH",
"457 357 OFFCURVE",
"413 434 OFFCURVE",
"203 434 CURVE SMOOTH",
"73 434 LINE",
"49 362 LINE",
"176 362 LINE SMOOTH",
"323 362 OFFCURVE",
"375 342 OFFCURVE",
"375 253 CURVE SMOOTH",
"375 203 OFFCURVE",
"352 140 OFFCURVE",
"265 140 CURVE SMOOTH",
"245 140 OFFCURVE",
"239 146 OFFCURVE",
"233 152 CURVE",
"255 157 OFFCURVE",
"285 176 OFFCURVE",
"285 217 CURVE SMOOTH",
"285 256 OFFCURVE",
"255 285 OFFCURVE",
"217 285 CURVE SMOOTH",
"180 285 OFFCURVE",
"144 254 OFFCURVE",
"144 205 CURVE SMOOTH",
"144 138 OFFCURVE",
"198 92 OFFCURVE",
"267 92 CURVE SMOOTH"
);
}
);
width = 675;
}
);
unicode = 1908;
},
{
glyphname = uni1909;
lastChange = "2017-09-12 16:02:21 +0000";
layers = (
{
layerId = UUID0;
paths = (
{
closed = 1;
nodes = (
"304 -125 OFFCURVE",
"470 -31 OFFCURVE",
"544 82 CURVE",
"513 113 LINE",
"447 77 OFFCURVE",
"376 65 OFFCURVE",
"303 65 CURVE SMOOTH",
"199 65 OFFCURVE",
"121 88 OFFCURVE",
"121 162 CURVE SMOOTH",
"121 203 OFFCURVE",
"147 236 OFFCURVE",
"190 258 CURVE",
"207 256 OFFCURVE",
"224 255 OFFCURVE",
"243 255 CURVE SMOOTH",
"334 255 OFFCURVE",
"421 289 OFFCURVE",
"476 321 CURVE",
"452 353 LINE",
"414 334 OFFCURVE",
"337 319 OFFCURVE",
"259 319 CURVE SMOOTH",
"182 319 OFFCURVE",
"121 352 OFFCURVE",
"121 406 CURVE SMOOTH",
"121 470 OFFCURVE",
"176 504 OFFCURVE",
"275 504 CURVE SMOOTH",
"461 504 LINE",
"485 576 LINE",
"288 576 LINE SMOOTH",
"144 576 OFFCURVE",
"39 473 OFFCURVE",
"39 391 CURVE SMOOTH",
"39 334 OFFCURVE",
"65 291 OFFCURVE",
"130 270 CURVE",
"81 239 OFFCURVE",
"39 191 OFFCURVE",
"39 141 CURVE SMOOTH",
"39 60 OFFCURVE",
"89 -7 OFFCURVE",
"272 -7 CURVE SMOOTH",
"313 -7 OFFCURVE",
"355 0 OFFCURVE",
"395 10 CURVE",
"329 -42 OFFCURVE",
"229 -93 OFFCURVE",
"159 -117 CURVE",
"179 -156 LINE"
);
}
);
width = 583;
}
);
unicode = 1909;
},
{
glyphname = uni190A;
lastChange = "2017-09-12 16:02:21 +0000";
layers = (
{
layerId = UUID0;
paths = (
{
closed = 1;
nodes = (
"375 -7 OFFCURVE",
"439 114 OFFCURVE",
"439 232 CURVE SMOOTH",
"439 281 LINE",
"492 253 OFFCURVE",
"541 213 OFFCURVE",
"584 164 CURVE",
"549 109 OFFCURVE",
"509 61 OFFCURVE",
"472 29 CURVE",
"504 -2 LINE",
"543 29 OFFCURVE",
"584 70 OFFCURVE",
"622 116 CURVE",
"648 80 OFFCURVE",
"672 40 OFFCURVE",
"693 -2 CURVE",
"738 25 LINE",
"718 74 OFFCURVE",
"691 122 OFFCURVE",
"659 167 CURVE",
"695 219 OFFCURVE",
"723 276 OFFCURVE",
"732 331 CURVE",
"667 355 LINE",
"658 313 OFFCURVE",
"640 266 OFFCURVE",
"617 221 CURVE",
"565 280 OFFCURVE",
"504 329 OFFCURVE",
"439 359 CURVE",
"439 504 LINE",
"605 504 LINE",
"630 576 LINE",
"71 576 LINE",
"46 504 LINE",
"359 504 LINE",
"359 387 LINE",
"338 392 OFFCURVE",
"316 394 OFFCURVE",
"294 394 CURVE SMOOTH",
"173 394 OFFCURVE",
"39 328 OFFCURVE",
"39 167 CURVE SMOOTH",
"39 62 OFFCURVE",
"118 -7 OFFCURVE",
"217 -7 CURVE SMOOTH"
);
},
{
closed = 1;
nodes = (
"131 65 OFFCURVE",
"89 110 OFFCURVE",
"89 175 CURVE SMOOTH",
"89 267 OFFCURVE",
"160 322 OFFCURVE",
"284 322 CURVE SMOOTH",
"309 322 OFFCURVE",
"334 318 OFFCURVE",
"359 312 CURVE",
"359 217 LINE SMOOTH",
"359 102 OFFCURVE",
"281 65 OFFCURVE",
"214 65 CURVE SMOOTH"
);
}
);
width = 777;
}
);
unicode = 190A;
},
{
glyphname = uni190B;
lastChange = "2017-09-12 16:02:21 +0000";
layers = (
{
layerId = UUID0;
paths = (
{
closed = 1;
nodes = (
"390 -7 OFFCURVE",
"514 69 OFFCURVE",
"514 190 CURVE SMOOTH",
"514 248 OFFCURVE",
"484 301 OFFCURVE",
"410 331 CURVE",
"450 358 OFFCURVE",
"473 393 OFFCURVE",
"473 440 CURVE SMOOTH",
"473 516 OFFCURVE",
"414 583 OFFCURVE",
"271 583 CURVE SMOOTH",
"154 583 OFFCURVE",
"83 521 OFFCURVE",
"41 471 CURVE",
"66 444 LINE",
"119 492 OFFCURVE",
"187 511 OFFCURVE",
"262 511 CURVE SMOOTH",
"341 511 OFFCURVE",
"389 483 OFFCURVE",
"389 432 CURVE SMOOTH",
"389 394 OFFCURVE",
"375 368 OFFCURVE",
"348 347 CURVE",
"323 352 OFFCURVE",
"293 354 OFFCURVE",
"261 354 CURVE SMOOTH",
"189 354 LINE",
"165 282 LINE",
"234 282 LINE SMOOTH",
"360 282 OFFCURVE",
"432 262 OFFCURVE",
"432 173 CURVE SMOOTH",
"432 84 OFFCURVE",
"345 41 OFFCURVE",
"258 41 CURVE SMOOTH",
"178 41 OFFCURVE",
"101 73 OFFCURVE",
"61 114 CURVE",
"29 77 LINE",
"79 28 OFFCURVE",
"170 -7 OFFCURVE",
"257 -7 CURVE SMOOTH"
);
}
);
width = 553;
}
);
unicode = 190B;
},
{
glyphname = uni190C;
lastChange = "2017-09-12 16:02:21 +0000";
layers = (
{
layerId = UUID0;
paths = (
{
closed = 1;
nodes = (
"375 -7 OFFCURVE",
"439 114 OFFCURVE",
"439 232 CURVE SMOOTH",
"439 305 LINE",
"590 289 OFFCURVE",
"612 204 OFFCURVE",
"612 170 CURVE SMOOTH",
"612 80 OFFCURVE",
"548 48 OFFCURVE",
"506 36 CURVE",
"523 -7 LINE",
"625 27 OFFCURVE",
"662 102 OFFCURVE",
"662 177 CURVE SMOOTH",
"662 299 OFFCURVE",
"578 365 OFFCURVE",
"439 377 CURVE",
"439 576 LINE",
"71 576 LINE",
"46 504 LINE",
"359 504 LINE",
"359 379 LINE",
"174 372 OFFCURVE",
"39 295 OFFCURVE",
"39 161 CURVE SMOOTH",
"39 55 OFFCURVE",
"118 -7 OFFCURVE",
"217 -7 CURVE SMOOTH"
);
},
{
closed = 1;
nodes = (
"121 65 OFFCURVE",
"89 119 OFFCURVE",
"89 161 CURVE SMOOTH",
"89 247 OFFCURVE",
"185 301 OFFCURVE",
"359 307 CURVE",
"359 217 LINE SMOOTH",
"359 102 OFFCURVE",
"281 65 OFFCURVE",
"214 65 CURVE SMOOTH"
);
}
);
width = 691;
}
);
unicode = 190C;
},
{
glyphname = uni190D;
lastChange = "2017-09-12 16:02:21 +0000";
layers = (
{
layerId = UUID0;
paths = (
{
closed = 1;
nodes = (
"483 -7 OFFCURVE",
"586 77 OFFCURVE",
"586 197 CURVE SMOOTH",
"586 324 OFFCURVE",
"479 374 OFFCURVE",
"360 374 CURVE SMOOTH",
"337 374 OFFCURVE",
"300 370 OFFCURVE",
"280 363 CURVE",
"289 448 LINE",
"421 448 OFFCURVE",
"535 469 OFFCURVE",
"585 509 CURVE",
"585 581 LINE",
"512 530 OFFCURVE",
"376 520 OFFCURVE",
"296 520 CURVE SMOOTH",
"199 520 OFFCURVE",
"94 537 OFFCURVE",
"20 581 CURVE",
"20 509 LINE",
"61 479 OFFCURVE",
"135 456 OFFCURVE",
"238 449 CURVE",
"223 319 LINE",
"232 310 LINE",
"259 320 OFFCURVE",
"292 326 OFFCURVE",
"346 326 CURVE SMOOTH",
"464 326 OFFCURVE",
"502 259 OFFCURVE",
"502 205 CURVE SMOOTH",
"502 106 OFFCURVE",
"426 65 OFFCURVE",
"319 65 CURVE SMOOTH",
"229 65 OFFCURVE",
"145 83 OFFCURVE",
"50 171 CURVE",
"22 146 LINE",
"55 100 OFFCURVE",
"164 -7 OFFCURVE",
"317 -7 CURVE SMOOTH"
);
}
);
width = 625;
}
);
unicode = 190D;
},
{
glyphname = uni190E;
lastChange = "2017-09-12 16:02:21 +0000";
layers = (
{
layerId = UUID0;
paths = (
{
closed = 1;
nodes = (
"487 -7 OFFCURVE",
"534 202 OFFCURVE",
"545 321 CURVE SMOOTH",
"555 425 OFFCURVE",
"589 490 OFFCURVE",
"641 549 CURVE",
"609 576 LINE",
"537 497 OFFCURVE",
"495 425 OFFCURVE",
"480 349 CURVE SMOOTH",
"450 198 OFFCURVE",
"480 65 OFFCURVE",
"269 65 CURVE SMOOTH",
"200 65 OFFCURVE",
"146 90 OFFCURVE",
"146 164 CURVE SMOOTH",
"146 195 OFFCURVE",
"159 235 OFFCURVE",
"226 274 CURVE",
"271 279 OFFCURVE",
"328 299 OFFCURVE",
"374 334 CURVE",
"357 363 LINE",
"330 352 OFFCURVE",
"279 346 OFFCURVE",
"245 346 CURVE SMOOTH",
"183 346 OFFCURVE",
"146 375 OFFCURVE",
"146 420 CURVE SMOOTH",
"146 458 OFFCURVE",
"158 479 OFFCURVE",
"181 504 CURVE",
"381 504 LINE",
"405 576 LINE",
"49 576 LINE",
"24 504 LINE",
"126 504 LINE",
"84 465 OFFCURVE",
"63 427 OFFCURVE",
"63 390 CURVE SMOOTH",
"63 334 OFFCURVE",
"109 294 OFFCURVE",
"162 279 CURVE",
"109 246 OFFCURVE",
"63 192 OFFCURVE",
"63 142 CURVE SMOOTH",
"63 47 OFFCURVE",
"146 -7 OFFCURVE",
"245 -7 CURVE SMOOTH"
);
}
);
width = 680;
}
);
unicode = 190E;
},
{
glyphname = uni190F;
lastChange = "2017-09-12 16:02:21 +0000";
layers = (
{
layerId = UUID0;
paths = (
{
closed = 1;
nodes = (
"542 0 LINE",
"566 72 LINE",
"158 72 LINE",
"198 133 OFFCURVE",
"252 205 OFFCURVE",
"312 277 CURVE",
"510 277 LINE",
"534 330 LINE",
"355 330 LINE",
"422 408 OFFCURVE",
"493 483 OFFCURVE",
"556 542 CURVE",
"563 576 LINE",
"63 576 LINE",
"39 504 LINE",
"452 504 LINE",
"303 370 OFFCURVE",
"188 244 OFFCURVE",
"60 72 CURVE",
"43 0 LINE"
);
}
);
width = 605;
}
);
unicode = 190F;
},
{
glyphname = uni1910;
lastChange = "2017-09-12 16:02:21 +0000";
layers = (
{
layerId = UUID0;
paths = (
{
closed = 1;
nodes = (
"275 -7 OFFCURVE",
"321 23 OFFCURVE",
"354 63 CURVE",
"385 16 OFFCURVE",
"438 -7 OFFCURVE",
"497 -7 CURVE SMOOTH",
"603 -7 OFFCURVE",
"708 134 OFFCURVE",
"708 280 CURVE SMOOTH",
"708 421 OFFCURVE",
"650 535 OFFCURVE",
"543 583 CURVE",
"496 519 LINE",
"613 458 OFFCURVE",
"626 335 OFFCURVE",
"626 244 CURVE SMOOTH",
"626 149 OFFCURVE",
"598 65 OFFCURVE",
"505 65 CURVE SMOOTH",
"476 65 OFFCURVE",
"404 82 OFFCURVE",
"404 185 CURVE SMOOTH",
"404 249 LINE",
"324 225 LINE",
"324 171 LINE SMOOTH",
"324 149 OFFCURVE",
"327 129 OFFCURVE",
"332 110 CURVE",
"306 82 OFFCURVE",
"272 65 OFFCURVE",
"234 65 CURVE SMOOTH",
"176 65 OFFCURVE",
"121 121 OFFCURVE",
"121 261 CURVE SMOOTH",
"121 415 OFFCURVE",
"197 516 OFFCURVE",
"249 552 CURVE",
"228 581 LINE",
"128 518 OFFCURVE",
"39 391 OFFCURVE",
"39 245 CURVE SMOOTH",
"39 86 OFFCURVE",
"112 -7 OFFCURVE",
"219 -7 CURVE SMOOTH"
);
}
);
width = 747;
}
);
unicode = 1910;
},
{
glyphname = uni1911;
lastChange = "2017-09-12 16:02:21 +0000";
layers = (
{
layerId = UUID0;
paths = (
{
closed = 1;
nodes = (
"299 -7 OFFCURVE",
"346 88 OFFCURVE",
"384 197 CURVE",
"417 88 OFFCURVE",
"462 -7 OFFCURVE",
"569 -7 CURVE SMOOTH",
"681 -7 OFFCURVE",
"771 165 OFFCURVE",
"771 311 CURVE SMOOTH",
"771 483 OFFCURVE",
"714 583 OFFCURVE",
"596 583 CURVE SMOOTH",
"504 583 OFFCURVE",
"449 509 OFFCURVE",
"408 417 CURVE",
"376 509 OFFCURVE",
"332 583 OFFCURVE",
"244 583 CURVE SMOOTH",
"160 583 OFFCURVE",
"86 515 OFFCURVE",
"58 425 CURVE",
"114 411 LINE",
"125 481 OFFCURVE",
"158 516 OFFCURVE",
"207 516 CURVE SMOOTH",
"298 516 OFFCURVE",
"329 407 OFFCURVE",
"359 289 CURVE",
"319 174 OFFCURVE",
"284 69 OFFCURVE",
"215 69 CURVE SMOOTH",
"139 69 OFFCURVE",
"127 148 OFFCURVE",
"122 221 CURVE",
"39 232 LINE",
"41 91 OFFCURVE",
"96 -7 OFFCURVE",
"204 -7 CURVE SMOOTH"
);
},
{
closed = 1;
nodes = (
"495 65 OFFCURVE",
"462 228 OFFCURVE",
"444 294 CURVE SMOOTH",
"432 339 LINE",
"465 434 OFFCURVE",
"503 511 OFFCURVE",
"575 511 CURVE SMOOTH",
"624 511 OFFCURVE",
"689 459 OFFCURVE",
"689 281 CURVE SMOOTH",
"689 153 OFFCURVE",
"667 65 OFFCURVE",
"589 65 CURVE SMOOTH"
);
}
);
width = 811;
}
);
unicode = 1911;
},
{
glyphname = uni1912;
lastChange = "2017-09-12 16:02:21 +0000";
layers = (
{
layerId = UUID0;
paths = (
{
closed = 1;
nodes = (
"428 -7 OFFCURVE",
"576 65 OFFCURVE",
"576 197 CURVE SMOOTH",
"576 258 OFFCURVE",
"523 308 OFFCURVE",
"462 308 CURVE SMOOTH",
"401 308 OFFCURVE",
"353 265 OFFCURVE",
"353 204 CURVE SMOOTH",
"353 151 OFFCURVE",
"388 102 OFFCURVE",
"436 90 CURVE",
"393 70 OFFCURVE",
"344 65 OFFCURVE",
"305 65 CURVE SMOOTH",
"228 65 OFFCURVE",
"111 106 OFFCURVE",
"111 238 CURVE SMOOTH",
"111 375 OFFCURVE",
"209 462 OFFCURVE",
"328 504 CURVE",
"533 504 LINE",
"557 576 LINE",
"54 576 LINE",
"29 504 LINE",
"239 504 LINE",
"142 458 OFFCURVE",
"29 361 OFFCURVE",
"29 234 CURVE SMOOTH",
"29 90 OFFCURVE",
"123 -7 OFFCURVE",
"306 -7 CURVE SMOOTH"
);
},
{
closed = 1;
nodes = (
"425 154 OFFCURVE",
"405 176 OFFCURVE",
"405 208 CURVE SMOOTH",
"405 232 OFFCURVE",
"423 255 OFFCURVE",
"456 255 CURVE SMOOTH",
"488 255 OFFCURVE",
"504 229 OFFCURVE",
"504 205 CURVE SMOOTH",
"504 179 OFFCURVE",
"489 154 OFFCURVE",
"457 154 CURVE SMOOTH"
);
}
);
width = 615;
}
);
unicode = 1912;
},
{
glyphname = uni1913;
lastChange = "2017-09-12 16:02:21 +0000";
layers = (
{
layerId = UUID0;
paths = (
{
closed = 1;
nodes = (
"627 20 LINE",
"627 581 LINE",
"547 557 LINE",
"547 260 LINE",
"490 205 OFFCURVE",
"434 197 OFFCURVE",
"408 197 CURVE SMOOTH",
"364 197 OFFCURVE",
"319 216 OFFCURVE",
"319 270 CURVE SMOOTH",
"319 337 OFFCURVE",
"424 403 OFFCURVE",
"424 469 CURVE SMOOTH",
"424 543 OFFCURVE",
"369 583 OFFCURVE",
"278 583 CURVE SMOOTH",
"162 583 OFFCURVE",
"29 446 OFFCURVE",
"29 304 CURVE SMOOTH",
"29 190 OFFCURVE",
"93 125 OFFCURVE",
"202 125 CURVE SMOOTH",
"241 125 OFFCURVE",
"271 135 OFFCURVE",
"296 149 CURVE",
"323 133 OFFCURVE",
"356 125 OFFCURVE",
"392 125 CURVE SMOOTH",
"463 125 OFFCURVE",
"510 165 OFFCURVE",
"547 205 CURVE",
"547 -5 LINE"
);
},
{
closed = 1;
nodes = (
"118 197 OFFCURVE",
"97 272 OFFCURVE",
"97 335 CURVE SMOOTH",
"97 426 OFFCURVE",
"152 509 OFFCURVE",
"257 509 CURVE SMOOTH",
"310 509 OFFCURVE",
"342 488 OFFCURVE",
"342 451 CURVE SMOOTH",
"342 381 OFFCURVE",
"237 327 OFFCURVE",
"237 259 CURVE SMOOTH",
"237 236 OFFCURVE",
"242 217 OFFCURVE",
"250 200 CURVE",
"237 198 OFFCURVE",
"226 197 OFFCURVE",
"218 197 CURVE SMOOTH"
);
}
);
width = 700;
}
);
unicode = 1913;
},
{
glyphname = uni1914;
lastChange = "2017-09-12 16:02:21 +0000";
layers = (
{
layerId = UUID0;
paths = (
{
closed = 1;
nodes = (
"574 34 LINE",
"574 576 LINE",
"50 576 LINE",
"25 504 LINE",
"368 504 LINE",
"24 185 LINE",
"34 153 LINE",
"213 153 OFFCURVE",
"363 107 OFFCURVE",
"499 0 CURVE"
);
},
{
closed = 1;
nodes = (
"424 141 OFFCURVE",
"299 214 OFFCURVE",
"146 226 CURVE",
"446 504 LINE",
"494 504 LINE",
"494 80 LINE"
);
}
);
width = 647;
}
);
unicode = 1914;
},
{
glyphname = uni1915;
lastChange = "2017-09-12 16:02:21 +0000";
layers = (
{
layerId = UUID0;
paths = (
{
closed = 1;
nodes = (
"320 -7 OFFCURVE",
"381 13 OFFCURVE",
"428 44 CURVE",
"463 24 OFFCURVE",
"502 6 OFFCURVE",
"546 -7 CURVE",
"564 34 LINE",
"529 42 OFFCURVE",
"498 58 OFFCURVE",
"468 77 CURVE",
"516 124 OFFCURVE",
"542 184 OFFCURVE",
"542 242 CURVE SMOOTH",
"542 339 OFFCURVE",
"447 407 OFFCURVE",
"332 407 CURVE",
"473 542 LINE",
"480 576 LINE",
"76 576 LINE",
"51 504 LINE",
"369 504 LINE",
"242 389 LINE",
"237 360 LINE",
"266 362 OFFCURVE",
"284 363 OFFCURVE",
"296 363 CURVE SMOOTH",
"422 363 OFFCURVE",
"460 290 OFFCURVE",
"460 234 CURVE SMOOTH",
"460 183 OFFCURVE",
"443 145 OFFCURVE",
"416 118 CURVE",
"340 182 OFFCURVE",
"271 257 OFFCURVE",
"169 257 CURVE SMOOTH",
"102 257 OFFCURVE",
"39 210 OFFCURVE",
"39 136 CURVE SMOOTH",
"39 33 OFFCURVE",
"149 -7 OFFCURVE",
"248 -7 CURVE SMOOTH"
);
},
{
closed = 1;
nodes = (
"170 65 OFFCURVE",
"89 88 OFFCURVE",
"89 136 CURVE SMOOTH",
"89 172 OFFCURVE",
"129 185 OFFCURVE",
"161 185 CURVE SMOOTH",
"229 185 OFFCURVE",
"289 136 OFFCURVE",
"365 84 CURVE",
"333 71 OFFCURVE",
"297 65 OFFCURVE",
"259 65 CURVE SMOOTH"
);
}
);
width = 604;
}
);
unicode = 1915;
},
{
glyphname = uni1916;
lastChange = "2017-09-12 16:02:21 +0000";
layers = (
{
layerId = UUID0;
paths = (
{
closed = 1;
nodes = (
"140 20 LINE",
"173 92 OFFCURVE",
"229 178 OFFCURVE",
"300 267 CURVE",
"528 -5 LINE",
"586 10 LINE",
"336 311 LINE",
"402 389 OFFCURVE",
"478 468 OFFCURVE",
"561 542 CURVE",
"568 576 LINE",
"54 576 LINE",
"29 504 LINE",
"457 504 LINE",
"343 406 OFFCURVE",
"135 210 OFFCURVE",
"33 -5 CURVE"
);
}
);
width = 625;
}
);
unicode = 1916;
},
{
glyphname = uni1917;
lastChange = "2017-09-12 16:02:21 +0000";
layers = (
{
layerId = UUID0;
paths = (
{
closed = 1;
nodes = (
"583 20 LINE",
"583 581 LINE",
"572 583 LINE",
"505 541 OFFCURVE",
"395 510 OFFCURVE",
"291 510 CURVE SMOOTH",
"212 510 OFFCURVE",
"147 541 OFFCURVE",
"105 581 CURVE",
"42 538 LINE",
"28 504 OFFCURVE",
"24 476 OFFCURVE",
"24 438 CURVE SMOOTH",
"24 280 OFFCURVE",
"141 215 OFFCURVE",
"248 215 CURVE SMOOTH",
"340 215 OFFCURVE",
"427 267 OFFCURVE",
"475 310 CURVE",
"452 339 LINE",
"410 308 OFFCURVE",
"340 288 OFFCURVE",
"273 288 CURVE SMOOTH",
"199 288 OFFCURVE",
"106 319 OFFCURVE",
"106 459 CURVE SMOOTH",
"106 469 OFFCURVE",
"107 481 OFFCURVE",
"108 493 CURVE",
"149 466 OFFCURVE",
"194 438 OFFCURVE",
"291 438 CURVE SMOOTH",
"368 438 OFFCURVE",
"460 479 OFFCURVE",
"502 504 CURVE",
"502 -5 LINE"
);
}
);
width = 656;
}
);
unicode = 1917;
},
{
glyphname = uni1918;
lastChange = "2017-09-12 16:02:21 +0000";
layers = (
{
layerId = UUID0;
paths = (
{
closed = 1;
nodes = (
"587 20 LINE",
"587 581 LINE",
"507 557 LINE",
"507 270 LINE",
"460 237 OFFCURVE",
"402 227 OFFCURVE",
"363 227 CURVE SMOOTH",
"304 227 OFFCURVE",
"263 260 OFFCURVE",
"263 335 CURVE SMOOTH",
"263 581 LINE",
"181 557 LINE",
"0 218 LINE",
"17 158 LINE",
"181 459 LINE",
"181 325 LINE SMOOTH",
"181 238 OFFCURVE",
"229 179 OFFCURVE",
"338 179 CURVE SMOOTH",
"400 179 OFFCURVE",
"474 204 OFFCURVE",
"507 228 CURVE",
"507 -5 LINE"
);
}
);
width = 661;
}
);
unicode = 1918;
},
{
glyphname = uni1919;
lastChange = "2017-09-12 16:02:21 +0000";
layers = (
{
layerId = UUID0;
paths = (
{
closed = 1;
nodes = (
"355 -7 OFFCURVE",
"453 65 OFFCURVE",
"453 272 CURVE SMOOTH",
"453 504 LINE",
"587 504 LINE",
"611 576 LINE",
"397 576 LINE",
"373 504 LINE",
"373 230 LINE SMOOTH",
"373 70 OFFCURVE",
"319 41 OFFCURVE",
"256 41 CURVE SMOOTH",
"202 41 OFFCURVE",
"153 71 OFFCURVE",
"153 212 CURVE SMOOTH",
"153 581 LINE",
"73 557 LINE",
"73 218 LINE SMOOTH",
"73 60 OFFCURVE",
"149 -7 OFFCURVE",
"256 -7 CURVE SMOOTH"
);
}
);
width = 636;
}
);
unicode = 1919;
},
{
glyphname = uni191A;
lastChange = "2017-09-12 16:02:21 +0000";
layers = (
{
layerId = UUID0;
paths = (
{
closed = 1;
nodes = (
"448 20 LINE",
"448 581 LINE",
"375 550 LINE",
"341 572 OFFCURVE",
"298 583 OFFCURVE",
"260 583 CURVE SMOOTH",
"193 583 OFFCURVE",
"39 488 OFFCURVE",
"39 347 CURVE SMOOTH",
"39 223 OFFCURVE",
"125 169 OFFCURVE",
"206 169 CURVE SMOOTH",
"280 169 OFFCURVE",
"334 213 OFFCURVE",
"368 273 CURVE",
"368 -5 LINE"
);
},
{
closed = 1;
nodes = (
"160 241 OFFCURVE",
"121 291 OFFCURVE",
"121 367 CURVE SMOOTH",
"121 443 OFFCURVE",
"149 511 OFFCURVE",
"229 511 CURVE SMOOTH",
"313 511 OFFCURVE",
"348 468 OFFCURVE",
"367 445 CURVE",
"367 393 LINE SMOOTH",
"367 278 OFFCURVE",
"296 241 OFFCURVE",
"229 241 CURVE SMOOTH"
);
}
);
width = 521;
}
);
unicode = 191A;
},
{
glyphname = uni191B;
lastChange = "2017-09-12 16:02:21 +0000";
layers = (
{
layerId = UUID0;
paths = (
{
closed = 1;
nodes = (
"558 20 LINE",
"558 576 LINE",
"228 576 LINE SMOOTH",
"131 576 OFFCURVE",
"39 438 OFFCURVE",
"39 342 CURVE SMOOTH",
"39 208 OFFCURVE",
"129 169 OFFCURVE",
"203 169 CURVE SMOOTH",
"326 169 OFFCURVE",
"396 294 OFFCURVE",
"396 416 CURVE SMOOTH",
"396 437 OFFCURVE",
"395 480 OFFCURVE",
"377 504 CURVE",
"478 504 LINE",
"478 -5 LINE"
);
},
{
closed = 1;
nodes = (
"174 241 OFFCURVE",
"121 272 OFFCURVE",
"121 360 CURVE SMOOTH",
"121 436 OFFCURVE",
"144 504 OFFCURVE",
"201 504 CURVE SMOOTH",
"293 504 LINE",
"310 484 OFFCURVE",
"321 431 OFFCURVE",
"321 391 CURVE SMOOTH",
"321 313 OFFCURVE",
"293 241 OFFCURVE",
"212 241 CURVE SMOOTH"
);
}
);
width = 631;
}
);
unicode = 191B;
},
{
glyphname = uni191C;
lastChange = "2017-09-12 16:02:21 +0000";
layers = (
{
layerId = UUID0;
paths = (
{
closed = 1;
nodes = (
"493 -7 OFFCURVE",
"596 100 OFFCURVE",
"629 146 CURVE",
"602 171 LINE",
"507 83 OFFCURVE",
"428 65 OFFCURVE",
"337 65 CURVE SMOOTH",
"206 65 OFFCURVE",
"123 148 OFFCURVE",
"123 277 CURVE SMOOTH",
"123 411 OFFCURVE",
"201 491 OFFCURVE",
"262 504 CURVE",
"470 504 LINE",
"277 328 LINE",
"266 275 LINE",
"294 276 OFFCURVE",
"300 278 OFFCURVE",
"325 278 CURVE SMOOTH",
"446 278 OFFCURVE",
"513 252 OFFCURVE",
"547 228 CURVE",
"583 300 LINE",
"538 325 OFFCURVE",
"431 346 OFFCURVE",
"367 346 CURVE",
"574 542 LINE",
"581 576 LINE",
"336 576 LINE",
"169 554 OFFCURVE",
"39 413 OFFCURVE",
"39 268 CURVE SMOOTH",
"39 96 OFFCURVE",
"152 -7 OFFCURVE",
"339 -7 CURVE SMOOTH"
);
}
);
width = 659;
}
);
unicode = 191C;
},
{
glyphname = uni191D;
lastChange = "2017-09-12 16:02:21 +0000";
layers = (
{
layerId = UUID0;
paths = (
{
closed = 1;
nodes = (
"583 576 LINE",
"49 576 LINE",
"24 504 LINE",
"159 504 LINE",
"159 190 LINE",
"239 215 LINE",
"239 238 LINE",
"251 350 OFFCURVE",
"300 372 OFFCURVE",
"355 372 CURVE SMOOTH",
"410 372 OFFCURVE",
"451 341 OFFCURVE",
"451 201 CURVE SMOOTH",
"451 -5 LINE",
"531 20 LINE",
"531 194 LINE SMOOTH",
"531 353 OFFCURVE",
"463 420 OFFCURVE",
"355 420 CURVE SMOOTH",
"314 420 OFFCURVE",
"273 407 OFFCURVE",
"239 378 CURVE",
"239 504 LINE",
"559 504 LINE"
);
}
);
width = 615;
}
);
unicode = 191D;
},
{
glyphname = uni191E;
lastChange = "2017-09-12 16:02:21 +0000";
layers = (
{
layerId = UUID0;
paths = (
{
closed = 1;
nodes = (
"569 576 LINE",
"49 576 LINE",
"24 504 LINE",
"149 504 LINE",
"149 348 LINE",
"418 348 LINE",
"418 217 LINE SMOOTH",
"418 147 OFFCURVE",
"380 106 OFFCURVE",
"333 84 CURVE",
"314 168 OFFCURVE",
"273 246 OFFCURVE",
"184 246 CURVE SMOOTH",
"125 246 OFFCURVE",
"75 196 OFFCURVE",
"75 122 CURVE SMOOTH",
"75 25 OFFCURVE",
"162 -7 OFFCURVE",
"251 -7 CURVE SMOOTH",
"268 -7 OFFCURVE",
"284 -6 OFFCURVE",
"299 -3 CURVE",
"304 -42 OFFCURVE",
"305 -78 OFFCURVE",
"305 -100 CURVE",
"351 -100 LINE",
"351 -76 OFFCURVE",
"350 -36 OFFCURVE",
"346 9 CURVE",
"444 46 OFFCURVE",
"498 140 OFFCURVE",
"498 232 CURVE SMOOTH",
"498 420 LINE",
"229 420 LINE",
"229 504 LINE",
"544 504 LINE"
);
},
{
closed = 1;
nodes = (
"163 65 OFFCURVE",
"125 97 OFFCURVE",
"125 126 CURVE SMOOTH",
"125 151 OFFCURVE",
"141 174 OFFCURVE",
"177 174 CURVE SMOOTH",
"235 174 OFFCURVE",
"267 126 OFFCURVE",
"284 69 CURVE",
"268 66 OFFCURVE",
"252 65 OFFCURVE",
"237 65 CURVE SMOOTH"
);
}
);
width = 601;
}
);
unicode = 191E;
},
{
glyphname = uni1920;
lastChange = "2017-09-12 16:02:21 +0000";
layers = (
{
layerId = UUID0;
paths = (
{
closed = 1;
nodes = (
"-504 703 OFFCURVE",
"-456 654 OFFCURVE",
"-395 654 CURVE SMOOTH",
"-63 654 LINE",
"-39 722 LINE",
"-291 722 LINE",
"-284 737 OFFCURVE",
"-281 754 OFFCURVE",
"-281 773 CURVE SMOOTH",
"-281 833 OFFCURVE",
"-327 875 OFFCURVE",
"-390 875 CURVE SMOOTH",
"-452 875 OFFCURVE",
"-504 825 OFFCURVE",
"-504 764 CURVE SMOOTH"
);
},
{
closed = 1;
nodes = (
"-432 801 OFFCURVE",
"-411 823 OFFCURVE",
"-386 823 CURVE SMOOTH",
"-354 823 OFFCURVE",
"-333 803 OFFCURVE",
"-333 774 CURVE SMOOTH",
"-333 742 OFFCURVE",
"-353 722 OFFCURVE",
"-382 722 CURVE SMOOTH",
"-415 722 OFFCURVE",
"-432 743 OFFCURVE",
"-432 775 CURVE SMOOTH"
);
}
);
width = 0;
}
);
unicode = 1920;
},
{
glyphname = uni1921;
lastChange = "2017-09-12 16:02:21 +0000";
layers = (
{
layerId = UUID0;
paths = (
{
closed = 1;
nodes = (
"138 504 LINE",
"163 576 LINE",
"50 576 LINE",
"59 591 OFFCURVE",
"71 634 OFFCURVE",
"71 684 CURVE SMOOTH",
"71 787 OFFCURVE",
"-13 838 OFFCURVE",
"-138 838 CURVE SMOOTH",
"-295 838 OFFCURVE",
"-346 765 OFFCURVE",
"-346 691 CURVE SMOOTH",
"-346 665 OFFCURVE",
"-337 638 OFFCURVE",
"-322 615 CURVE",
"-272 628 LINE",
"-287 645 OFFCURVE",
"-296 667 OFFCURVE",
"-296 689 CURVE SMOOTH",
"-296 724 OFFCURVE",
"-267 766 OFFCURVE",
"-138 766 CURVE SMOOTH",
"20 766 OFFCURVE",
"21 705 OFFCURVE",
"21 674 CURVE SMOOTH",
"21 623 OFFCURVE",
"0 565 OFFCURVE",
"-34 504 CURVE"
);
}
);
width = 0;
}
);
unicode = 1921;
},
{
glyphname = uni1922;
lastChange = "2017-09-12 16:02:21 +0000";
layers = (
{
layerId = UUID0;
paths = (
{
closed = 1;
nodes = (
"-305 -246 OFFCURVE",
"-169 -153 OFFCURVE",
"-78 5 CURVE",
"-117 0 LINE",
"-213 -123 OFFCURVE",
"-332 -166 OFFCURVE",
"-426 -174 CURVE",
"-422 -163 OFFCURVE",
"-419 -148 OFFCURVE",
"-419 -136 CURVE SMOOTH",
"-419 -86 OFFCURVE",
"-460 -49 OFFCURVE",
"-506 -49 CURVE SMOOTH",
"-557 -49 OFFCURVE",
"-599 -86 OFFCURVE",
"-599 -140 CURVE SMOOTH",
"-599 -227 OFFCURVE",
"-512 -246 OFFCURVE",
"-448 -246 CURVE SMOOTH"
);
},
{
closed = 1;
nodes = (
"-529 -176 OFFCURVE",
"-546 -159 OFFCURVE",
"-546 -139 CURVE SMOOTH",
"-546 -118 OFFCURVE",
"-529 -101 OFFCURVE",
"-509 -101 CURVE SMOOTH",
"-488 -101 OFFCURVE",
"-472 -118 OFFCURVE",
"-472 -139 CURVE SMOOTH",
"-472 -159 OFFCURVE",
"-488 -176 OFFCURVE",
"-509 -176 CURVE SMOOTH"
);
}
);
width = 0;
}
);
unicode = 1922;
},
{
glyphname = uni1923;
lastChange = "2017-09-12 16:02:21 +0000";
layers = (
{
layerId = UUID0;
paths = (
{
closed = 1;
nodes = (
"164 144 OFFCURVE",
"262 301 OFFCURVE",
"262 423 CURVE SMOOTH",
"262 502 OFFCURVE",
"232 583 OFFCURVE",
"125 583 CURVE SMOOTH",
"59 583 OFFCURVE",
"13 533 OFFCURVE",
"13 470 CURVE SMOOTH",
"13 414 OFFCURVE",
"59 363 OFFCURVE",
"121 363 CURVE SMOOTH",
"135 363 OFFCURVE",
"153 366 OFFCURVE",
"167 371 CURVE",
"159 274 OFFCURVE",
"106 144 OFFCURVE",
"5 10 CURVE",
"34 -7 LINE"
);
},
{
closed = 1;
nodes = (
"91 416 OFFCURVE",
"65 441 OFFCURVE",
"65 473 CURVE SMOOTH",
"65 505 OFFCURVE",
"91 531 OFFCURVE",
"123 531 CURVE SMOOTH",
"155 531 OFFCURVE",
"181 505 OFFCURVE",
"181 473 CURVE SMOOTH",
"181 441 OFFCURVE",
"155 416 OFFCURVE",
"123 416 CURVE SMOOTH"
);
}
);
width = 286;
}
);
unicode = 1923;
},
{
glyphname = uni1924;
lastChange = "2017-09-12 16:02:21 +0000";
layers = (
{
layerId = UUID0;
paths = (
{
closed = 1;
nodes = (
"397 132 OFFCURVE",
"537 276 OFFCURVE",
"537 423 CURVE SMOOTH",
"537 502 OFFCURVE",
"507 583 OFFCURVE",
"400 583 CURVE SMOOTH",
"333 583 OFFCURVE",
"288 533 OFFCURVE",
"288 470 CURVE SMOOTH",
"288 409 OFFCURVE",
"334 361 OFFCURVE",
"396 361 CURVE SMOOTH",
"410 361 OFFCURVE",
"428 364 OFFCURVE",
"441 369 CURVE",
"434 271 OFFCURVE",
"315 132 OFFCURVE",
"173 18 CURVE",
"197 -7 LINE"
);
},
{
closed = 1;
nodes = (
"164 144 OFFCURVE",
"262 301 OFFCURVE",
"262 423 CURVE SMOOTH",
"262 502 OFFCURVE",
"232 583 OFFCURVE",
"125 583 CURVE SMOOTH",
"59 583 OFFCURVE",
"13 533 OFFCURVE",
"13 470 CURVE SMOOTH",
"13 409 OFFCURVE",
"59 361 OFFCURVE",
"121 361 CURVE SMOOTH",
"135 361 OFFCURVE",
"153 364 OFFCURVE",
"167 369 CURVE",
"159 271 OFFCURVE",
"106 144 OFFCURVE",
"5 10 CURVE",
"34 -7 LINE"
);
},
{
closed = 1;
nodes = (
"85 409 OFFCURVE",
"63 439 OFFCURVE",
"63 472 CURVE SMOOTH",
"63 505 OFFCURVE",
"86 536 OFFCURVE",
"122 536 CURVE SMOOTH",
"158 536 OFFCURVE",
"180 506 OFFCURVE",
"180 471 CURVE SMOOTH",
"180 437 OFFCURVE",
"157 409 OFFCURVE",
"121 409 CURVE SMOOTH"
);
},
{
closed = 1;
nodes = (
"360 409 OFFCURVE",
"338 439 OFFCURVE",
"338 472 CURVE SMOOTH",
"338 505 OFFCURVE",
"361 536 OFFCURVE",
"397 536 CURVE SMOOTH",
"433 536 OFFCURVE",
"455 506 OFFCURVE",
"455 471 CURVE SMOOTH",
"455 437 OFFCURVE",
"432 409 OFFCURVE",
"396 409 CURVE SMOOTH"
);
}
);
width = 561;
}
);
unicode = 1924;
},
{
glyphname = uni1925;
lastChange = "2017-09-12 16:02:21 +0000";
layers = (
{
layerId = UUID0;
paths = (
{
closed = 1;
nodes = (
"164 144 OFFCURVE",
"262 301 OFFCURVE",
"262 423 CURVE SMOOTH",
"262 502 OFFCURVE",
"232 583 OFFCURVE",
"125 583 CURVE SMOOTH",
"59 583 OFFCURVE",
"13 533 OFFCURVE",
"13 470 CURVE SMOOTH",
"13 409 OFFCURVE",
"59 361 OFFCURVE",
"121 361 CURVE SMOOTH",
"135 361 OFFCURVE",
"153 364 OFFCURVE",
"167 369 CURVE",
"159 271 OFFCURVE",
"106 144 OFFCURVE",
"5 10 CURVE",
"34 -7 LINE"
);
},
{
closed = 1;
nodes = (
"-399 722 OFFCURVE",
"-418 743 OFFCURVE",
"-418 775 CURVE SMOOTH",
"-418 795 OFFCURVE",
"-401 823 OFFCURVE",
"-372 823 CURVE SMOOTH",
"-345 823 OFFCURVE",
"-319 807 OFFCURVE",
"-319 774 CURVE SMOOTH",
"-319 742 OFFCURVE",
"-338 722 OFFCURVE",
"-367 722 CURVE SMOOTH"
);
},
{
closed = 1;
nodes = (
"-48 654 LINE",
"-24 722 LINE",
"-276 722 LINE",
"-271 734 OFFCURVE",
"-267 758 OFFCURVE",
"-267 773 CURVE SMOOTH",
"-267 835 OFFCURVE",
"-314 875 OFFCURVE",
"-375 875 CURVE SMOOTH",
"-436 875 OFFCURVE",
"-489 825 OFFCURVE",
"-489 764 CURVE SMOOTH",
"-489 703 OFFCURVE",
"-441 654 OFFCURVE",
"-380 654 CURVE SMOOTH"
);
},
{
closed = 1;
nodes = (
"85 409 OFFCURVE",
"63 439 OFFCURVE",
"63 472 CURVE SMOOTH",
"63 505 OFFCURVE",
"86 536 OFFCURVE",
"122 536 CURVE SMOOTH",
"158 536 OFFCURVE",
"180 506 OFFCURVE",
"180 471 CURVE SMOOTH",
"180 437 OFFCURVE",
"157 409 OFFCURVE",
"121 409 CURVE SMOOTH"
);
}
);
width = 286;
}
);
unicode = 1925;
},
{
glyphname = uni1926;
lastChange = "2017-09-12 16:02:21 +0000";
layers = (
{
layerId = UUID0;
paths = (
{
closed = 1;
nodes = (
"397 132 OFFCURVE",
"537 276 OFFCURVE",
"537 423 CURVE SMOOTH",
"537 502 OFFCURVE",
"507 583 OFFCURVE",
"400 583 CURVE SMOOTH",
"333 583 OFFCURVE",
"288 533 OFFCURVE",
"288 470 CURVE SMOOTH",
"288 409 OFFCURVE",
"334 361 OFFCURVE",
"396 361 CURVE SMOOTH",
"410 361 OFFCURVE",
"428 364 OFFCURVE",
"441 369 CURVE",
"434 271 OFFCURVE",
"315 132 OFFCURVE",
"173 18 CURVE",
"197 -7 LINE"
);
},
{
closed = 1;
nodes = (
"164 144 OFFCURVE",
"262 301 OFFCURVE",
"262 423 CURVE SMOOTH",
"262 502 OFFCURVE",
"232 583 OFFCURVE",
"125 583 CURVE SMOOTH",
"59 583 OFFCURVE",
"13 533 OFFCURVE",
"13 470 CURVE SMOOTH",
"13 409 OFFCURVE",
"59 361 OFFCURVE",
"121 361 CURVE SMOOTH",
"135 361 OFFCURVE",
"153 364 OFFCURVE",
"167 369 CURVE",
"159 271 OFFCURVE",
"106 144 OFFCURVE",
"5 10 CURVE",
"34 -7 LINE"
);
},
{
closed = 1;
nodes = (
"85 409 OFFCURVE",
"63 439 OFFCURVE",
"63 472 CURVE SMOOTH",
"63 505 OFFCURVE",
"86 536 OFFCURVE",
"122 536 CURVE SMOOTH",
"158 536 OFFCURVE",
"180 506 OFFCURVE",
"180 471 CURVE SMOOTH",
"180 437 OFFCURVE",
"157 409 OFFCURVE",
"121 409 CURVE SMOOTH"
);
},
{
closed = 1;
nodes = (
"360 409 OFFCURVE",
"338 439 OFFCURVE",
"338 472 CURVE SMOOTH",
"338 505 OFFCURVE",
"361 536 OFFCURVE",
"397 536 CURVE SMOOTH",
"433 536 OFFCURVE",
"455 506 OFFCURVE",
"455 471 CURVE SMOOTH",
"455 437 OFFCURVE",
"432 409 OFFCURVE",
"396 409 CURVE SMOOTH"
);
},
{
closed = 1;
nodes = (
"-399 722 OFFCURVE",
"-418 743 OFFCURVE",
"-418 775 CURVE SMOOTH",
"-418 795 OFFCURVE",
"-401 823 OFFCURVE",
"-372 823 CURVE SMOOTH",
"-345 823 OFFCURVE",
"-319 807 OFFCURVE",
"-319 774 CURVE SMOOTH",
"-319 742 OFFCURVE",
"-338 722 OFFCURVE",
"-367 722 CURVE SMOOTH"
);
},
{
closed = 1;
nodes = (
"-48 654 LINE",
"-24 722 LINE",
"-276 722 LINE",
"-271 734 OFFCURVE",
"-267 758 OFFCURVE",
"-267 773 CURVE SMOOTH",
"-267 835 OFFCURVE",
"-314 875 OFFCURVE",
"-375 875 CURVE SMOOTH",
"-436 875 OFFCURVE",
"-489 825 OFFCURVE",
"-489 764 CURVE SMOOTH",
"-489 703 OFFCURVE",
"-441 654 OFFCURVE",
"-380 654 CURVE SMOOTH"
);
}
);
width = 561;
}
);
unicode = 1926;
},
{
glyphname = uni1927;
lastChange = "2017-09-12 16:02:21 +0000";
layers = (
{
layerId = UUID0;
paths = (
{
closed = 1;
nodes = (
"-155 708 LINE",
"-459 871 LINE",
"-486 823 LINE",
"-188 649 LINE"
);
}
);
width = 0;
}
);
unicode = 1927;
},
{
glyphname = uni1928;
lastChange = "2017-09-12 16:02:21 +0000";
layers = (
{
layerId = UUID0;
paths = (
{
closed = 1;
nodes = (
"-295 654 LINE",
"-247 691 OFFCURVE",
"-154 771 OFFCURVE",
"-33 836 CURVE",
"-51 869 LINE",
"-118 839 OFFCURVE",
"-215 786 OFFCURVE",
"-303 730 CURVE",
"-324 827 OFFCURVE",
"-383 861 OFFCURVE",
"-443 861 CURVE SMOOTH",
"-469 861 OFFCURVE",
"-496 853 OFFCURVE",
"-519 837 CURVE",
"-505 795 LINE",
"-489 810 OFFCURVE",
"-467 813 OFFCURVE",
"-445 813 CURVE SMOOTH",
"-410 813 OFFCURVE",
"-368 783 OFFCURVE",
"-368 654 CURVE"
);
}
);
width = 0;
}
);
unicode = 1928;
},
{
glyphname = uni1929;
lastChange = "2017-09-12 16:02:21 +0000";
layers = (
{
layerId = UUID0;
paths = (
{
closed = 1;
nodes = (
"231 -37 OFFCURVE",
"258 129 OFFCURVE",
"334 165 CURVE",
"329 202 LINE",
"236 179 OFFCURVE",
"211 36 OFFCURVE",
"149 36 CURVE SMOOTH",
"108 36 OFFCURVE",
"124 153 OFFCURVE",
"71 153 CURVE SMOOTH",
"25 153 OFFCURVE",
"-55 91 OFFCURVE",
"-97 41 CURVE",
"-67 10 LINE",
"-38 38 OFFCURVE",
"1 81 OFFCURVE",
"22 81 CURVE SMOOTH",
"70 81 OFFCURVE",
"35 -37 OFFCURVE",
"127 -37 CURVE SMOOTH"
);
}
);
width = 358;
}
);
unicode = 1929;
},
{
glyphname = uni192A;
lastChange = "2017-09-12 16:02:21 +0000";
layers = (
{
layerId = UUID0;
paths = (
{
closed = 1;
nodes = (
"170 -131 LINE",
"126 -116 OFFCURVE",
"66 -64 OFFCURVE",
"55 23 CURVE",
"36 32 LINE",
"-53 -64 OFFCURVE",
"-108 -122 OFFCURVE",
"-132 -146 CURVE",
"-103 -176 LINE",
"-80 -155 OFFCURVE",
"-32 -104 OFFCURVE",
"2 -62 CURVE",
"25 -133 OFFCURVE",
"77 -184 OFFCURVE",
"131 -202 CURVE"
);
}
);
width = 0;
}
);
unicode = 192A;
},
{
glyphname = uni192B;
lastChange = "2017-09-12 16:02:21 +0000";
layers = (
{
layerId = UUID0;
paths = (
{
closed = 1;
nodes = (
"361 20 LINE",
"361 320 LINE",
"280 295 LINE",
"280 126 LINE",
"242 103 OFFCURVE",
"192 84 OFFCURVE",
"146 84 CURVE SMOOTH",
"124 84 OFFCURVE",
"121 94 OFFCURVE",
"121 109 CURVE SMOOTH",
"121 123 OFFCURVE",
"134 146 OFFCURVE",
"147 171 CURVE SMOOTH",
"161 198 OFFCURVE",
"175 226 OFFCURVE",
"175 250 CURVE SMOOTH",
"175 280 OFFCURVE",
"164 313 OFFCURVE",
"110 313 CURVE SMOOTH",
"64 313 OFFCURVE",
"-16 258 OFFCURVE",
"-58 208 CURVE",
"-28 177 LINE",
"1 204 OFFCURVE",
"57 248 OFFCURVE",
"77 248 CURVE SMOOTH",
"101 248 OFFCURVE",
"104 229 OFFCURVE",
"104 219 CURVE SMOOTH",
"104 206 OFFCURVE",
"94 188 OFFCURVE",
"83 169 CURVE SMOOTH",
"68 142 OFFCURVE",
"50 113 OFFCURVE",
"50 91 CURVE SMOOTH",
"50 53 OFFCURVE",
"85 32 OFFCURVE",
"128 32 CURVE SMOOTH",
"186 32 OFFCURVE",
"242 63 OFFCURVE",
"280 85 CURVE",
"280 -5 LINE"
);
}
);
width = 410;
}
);
unicode = 192B;
},
{
glyphname = uni1930;
lastChange = "2017-09-12 16:02:21 +0000";
layers = (
{
layerId = UUID0;
paths = (
{
closed = 1;
nodes = (
"353 214 OFFCURVE",
"445 284 OFFCURVE",
"474 308 CURVE",
"455 333 LINE",
"404 307 OFFCURVE",
"328 287 OFFCURVE",
"256 287 CURVE SMOOTH",
"195 287 OFFCURVE",
"119 304 OFFCURVE",
"119 391 CURVE SMOOTH",
"119 426 OFFCURVE",
"143 467 OFFCURVE",
"206 504 CURVE",
"474 504 LINE",
"498 576 LINE",
"44 576 LINE",
"20 504 LINE",
"137 504 LINE",
"84 474 OFFCURVE",
"37 428 OFFCURVE",
"37 371 CURVE SMOOTH",
"37 255 OFFCURVE",
"150 214 OFFCURVE",
"244 214 CURVE SMOOTH"
);
}
);
width = 547;
}
);
unicode = 1930;
},
{
glyphname = uni1931;
lastChange = "2017-09-12 16:02:21 +0000";
layers = (
{
layerId = UUID0;
paths = (
{
closed = 1;
nodes = (
"196 -7 OFFCURVE",
"240 54 OFFCURVE",
"240 119 CURVE SMOOTH",
"240 185 OFFCURVE",
"197 232 OFFCURVE",
"125 232 CURVE SMOOTH",
"49 232 OFFCURVE",
"0 178 OFFCURVE",
"0 112 CURVE SMOOTH",
"0 47 OFFCURVE",
"46 -7 OFFCURVE",
"119 -7 CURVE SMOOTH"
);
},
{
closed = 1;
nodes = (
"91 55 OFFCURVE",
"65 79 OFFCURVE",
"65 116 CURVE SMOOTH",
"65 156 OFFCURVE",
"87 183 OFFCURVE",
"125 183 CURVE SMOOTH",
"159 183 OFFCURVE",
"187 161 OFFCURVE",
"187 122 CURVE SMOOTH",
"187 84 OFFCURVE",
"167 55 OFFCURVE",
"129 55 CURVE SMOOTH"
);
}
);
width = 264;
}
);
unicode = 1931;
},
{
glyphname = uni1932;
lastChange = "2017-09-12 16:02:21 +0000";
layers = (
{
layerId = UUID0;
paths = (
{
closed = 1;
nodes = (
"-112 -289 OFFCURVE",
"-68 -228 OFFCURVE",
"-68 -163 CURVE SMOOTH",
"-68 -96 OFFCURVE",
"-111 -49 OFFCURVE",
"-183 -49 CURVE SMOOTH",
"-259 -49 OFFCURVE",
"-308 -103 OFFCURVE",
"-308 -169 CURVE SMOOTH",
"-308 -234 OFFCURVE",
"-262 -289 OFFCURVE",
"-189 -289 CURVE SMOOTH"
);
},
{
closed = 1;
nodes = (
"-217 -227 OFFCURVE",
"-243 -202 OFFCURVE",
"-243 -165 CURVE SMOOTH",
"-243 -125 OFFCURVE",
"-220 -99 OFFCURVE",
"-182 -99 CURVE SMOOTH",
"-148 -99 OFFCURVE",
"-121 -120 OFFCURVE",
"-121 -159 CURVE SMOOTH",
"-121 -196 OFFCURVE",
"-141 -227 OFFCURVE",
"-179 -227 CURVE SMOOTH"
);
}
);
width = 0;
}
);
unicode = 1932;
},
{
glyphname = uni1933;
lastChange = "2017-09-12 16:02:21 +0000";
layers = (
{
layerId = UUID0;
paths = (
{
closed = 1;
nodes = (
"-66 -127 OFFCURVE",
"-13 -80 OFFCURVE",
"69 -80 CURVE SMOOTH",
"119 -80 OFFCURVE",
"160 -100 OFFCURVE",
"183 -155 CURVE",
"246 -91 LINE",
"212 -35 OFFCURVE",
"158 -7 OFFCURVE",
"94 -7 CURVE SMOOTH",
"-18 -7 OFFCURVE",
"-91 -100 OFFCURVE",
"-122 -146 CURVE",
"-99 -170 LINE"
);
}
);
width = 270;
}
);
unicode = 1933;
},
{
glyphname = uni1934;
lastChange = "2017-09-12 16:02:21 +0000";
layers = (
{
layerId = UUID0;
paths = (
{
closed = 1;
nodes = (
"373 208 OFFCURVE",
"452 256 OFFCURVE",
"452 350 CURVE SMOOTH",
"452 421 OFFCURVE",
"400 465 OFFCURVE",
"336 465 CURVE SMOOTH",
"254 465 OFFCURVE",
"211 414 OFFCURVE",
"211 354 CURVE SMOOTH",
"211 328 OFFCURVE",
"219 302 OFFCURVE",
"232 281 CURVE",
"29 301 OFFCURVE",
"46 497 OFFCURVE",
"-9 583 CURVE",
"-35 535 LINE",
"-1 492 OFFCURVE",
"-23 208 OFFCURVE",
"274 208 CURVE SMOOTH"
);
},
{
closed = 1;
nodes = (
"289 291 OFFCURVE",
"261 319 OFFCURVE",
"261 354 CURVE SMOOTH",
"261 389 OFFCURVE",
"289 417 OFFCURVE",
"324 417 CURVE SMOOTH",
"359 417 OFFCURVE",
"388 389 OFFCURVE",
"388 354 CURVE SMOOTH",
"388 319 OFFCURVE",
"359 291 OFFCURVE",
"324 291 CURVE SMOOTH"
);
}
);
width = 477;
}
);
unicode = 1934;
},
{
glyphname = uni1935;
lastChange = "2017-09-12 16:02:21 +0000";
layers = (
{
layerId = UUID0;
paths = (
{
closed = 1;
nodes = (
"441 20 LINE",
"441 581 LINE",
"360 557 LINE",
"360 270 LINE",
"313 237 OFFCURVE",
"256 227 OFFCURVE",
"216 227 CURVE SMOOTH",
"157 227 OFFCURVE",
"126 260 OFFCURVE",
"126 335 CURVE SMOOTH",
"126 407 LINE SMOOTH",
"126 527 OFFCURVE",
"107 576 OFFCURVE",
"8 576 CURVE SMOOTH",
"-15 576 LINE",
"-39 504 LINE",
"0 504 LINE SMOOTH",
"22 504 OFFCURVE",
"44 490 OFFCURVE",
"44 427 CURVE SMOOTH",
"44 325 LINE SMOOTH",
"44 238 OFFCURVE",
"83 179 OFFCURVE",
"192 179 CURVE SMOOTH",
"254 179 OFFCURVE",
"328 204 OFFCURVE",
"360 228 CURVE",
"360 -5 LINE"
);
}
);
width = 514;
}
);
unicode = 1935;
},
{
glyphname = uni1936;
lastChange = "2017-09-12 16:02:21 +0000";
layers = (
{
layerId = UUID0;
paths = (
{
closed = 1;
nodes = (
"276 20 LINE",
"276 261 LINE",
"354 274 OFFCURVE",
"454 330 OFFCURVE",
"454 453 CURVE SMOOTH",
"454 559 OFFCURVE",
"397 584 OFFCURVE",
"350 584 CURVE SMOOTH",
"278 584 OFFCURVE",
"196 494 OFFCURVE",
"196 376 CURVE SMOOTH",
"196 333 LINE",
"129 338 OFFCURVE",
"92 358 OFFCURVE",
"92 416 CURVE SMOOTH",
"92 435 LINE SMOOTH",
"92 525 OFFCURVE",
"81 576 OFFCURVE",
"8 576 CURVE SMOOTH",
"-15 576 LINE",
"-39 504 LINE",
"0 504 LINE SMOOTH",
"22 504 OFFCURVE",
"44 492 OFFCURVE",
"44 440 CURVE SMOOTH",
"44 417 LINE SMOOTH",
"44 303 OFFCURVE",
"100 267 OFFCURVE",
"196 260 CURVE",
"196 -5 LINE"
);
},
{
closed = 1;
nodes = (
"276 431 LINE",
"276 498 OFFCURVE",
"304 512 OFFCURVE",
"323 512 CURVE SMOOTH",
"347 512 OFFCURVE",
"372 490 OFFCURVE",
"372 448 CURVE SMOOTH",
"372 373 OFFCURVE",
"325 342 OFFCURVE",
"276 333 CURVE"
);
}
);
width = 503;
}
);
unicode = 1936;
},
{
glyphname = uni1937;
lastChange = "2017-09-12 16:02:21 +0000";
layers = (
{
layerId = UUID0;
paths = (
{
closed = 1;
nodes = (
"111 -203 LINE",
"-37 10 LINE",
"-98 -37 LINE",
"68 -235 LINE"
);
}
);
width = 111;
}
);
unicode = 1937;
},
{
glyphname = uni1938;
lastChange = "2017-09-12 16:02:21 +0000";
layers = (
{
layerId = UUID0;
paths = (
{
closed = 1;
nodes = (
"219 252 OFFCURVE",
"299 336 OFFCURVE",
"299 454 CURVE SMOOTH",
"299 581 LINE",
"219 557 LINE",
"219 414 LINE SMOOTH",
"219 323 OFFCURVE",
"187 300 OFFCURVE",
"143 300 CURVE SMOOTH",
"100 300 OFFCURVE",
"80 324 OFFCURVE",
"80 415 CURVE SMOOTH",
"80 581 LINE",
"0 557 LINE",
"0 382 LINE SMOOTH",
"0 288 OFFCURVE",
"50 252 OFFCURVE",
"134 252 CURVE SMOOTH"
);
}
);
width = 324;
}
);
unicode = 1938;
},
{
glyphname = uni1939;
lastChange = "2017-09-12 16:02:21 +0000";
layers = (
{
layerId = UUID0;
paths = (
{
closed = 1;
nodes = (
"111 -37 LINE",
"50 10 LINE",
"-98 -203 LINE",
"-55 -235 LINE"
);
}
);
width = 111;
}
);
unicode = 1939;
},
{
glyphname = uni193A;
lastChange = "2017-09-12 16:02:21 +0000";
layers = (
{
layerId = UUID0;
paths = (
{
closed = 1;
nodes = (
"-24 732 OFFCURVE",
"0 757 OFFCURVE",
"0 787 CURVE SMOOTH",
"0 816 OFFCURVE",
"-24 841 OFFCURVE",
"-54 841 CURVE SMOOTH",
"-84 841 OFFCURVE",
"-108 816 OFFCURVE",
"-108 787 CURVE SMOOTH",
"-108 757 OFFCURVE",
"-84 732 OFFCURVE",
"-54 732 CURVE SMOOTH"
);
},
{
closed = 1;
nodes = (
"-202 732 OFFCURVE",
"-178 757 OFFCURVE",
"-178 787 CURVE SMOOTH",
"-178 816 OFFCURVE",
"-202 841 OFFCURVE",
"-232 841 CURVE SMOOTH",
"-262 841 OFFCURVE",
"-286 816 OFFCURVE",
"-286 787 CURVE SMOOTH",
"-286 757 OFFCURVE",
"-262 732 OFFCURVE",
"-232 732 CURVE SMOOTH"
);
}
);
width = 0;
}
);
unicode = 193A;
},
{
glyphname = uni193B;
lastChange = "2017-09-12 16:02:21 +0000";
layers = (
{
layerId = UUID0;
paths = (
{
closed = 1;
nodes = (
"-49 -148 LINE",
"-49 -85 LINE",
"-567 -85 LINE",
"-567 -148 LINE"
);
}
);
width = 0;
}
);
unicode = 193B;
},
{
glyphname = uni1940;
lastChange = "2017-09-12 16:02:21 +0000";
layers = (
{
layerId = UUID0;
paths = (
{
closed = 1;
nodes = (
"409 -7 OFFCURVE",
"511 68 OFFCURVE",
"511 176 CURVE SMOOTH",
"511 226 OFFCURVE",
"477 299 OFFCURVE",
"387 299 CURVE SMOOTH",
"311 299 OFFCURVE",
"263 238 OFFCURVE",
"263 171 CURVE SMOOTH",
"263 130 OFFCURVE",
"287 93 OFFCURVE",
"318 67 CURVE",
"304 65 OFFCURVE",
"288 65 OFFCURVE",
"272 65 CURVE SMOOTH",
"208 65 OFFCURVE",
"121 106 OFFCURVE",
"121 250 CURVE SMOOTH",
"121 364 OFFCURVE",
"167 467 OFFCURVE",
"293 555 CURVE",
"271 583 LINE",
"108 477 OFFCURVE",
"39 348 OFFCURVE",
"39 236 CURVE SMOOTH",
"39 77 OFFCURVE",
"145 -7 OFFCURVE",
"268 -7 CURVE SMOOTH"
);
},
{
closed = 1;
nodes = (
"348 105 OFFCURVE",
"321 135 OFFCURVE",
"321 171 CURVE SMOOTH",
"321 200 OFFCURVE",
"340 227 OFFCURVE",
"376 227 CURVE SMOOTH",
"416 227 OFFCURVE",
"429 199 OFFCURVE",
"429 175 CURVE SMOOTH",
"429 129 OFFCURVE",
"411 102 OFFCURVE",
"383 86 CURVE"
);
}
);
width = 550;
}
);
unicode = 1940;
},
{
glyphname = uni1944;
lastChange = "2017-09-12 16:02:21 +0000";
layers = (
{
layerId = UUID0;
paths = (
{
closed = 1;
nodes = (
"352 34 LINE",
"352 411 LINE SMOOTH",
"352 555 OFFCURVE",
"306 654 OFFCURVE",
"184 654 CURVE SMOOTH",
"98 654 OFFCURVE",
"59 592 OFFCURVE",
"59 536 CURVE SMOOTH",
"59 499 OFFCURVE",
"71 460 OFFCURVE",
"111 430 CURVE",
"140 473 LINE",
"125 490 OFFCURVE",
"111 505 OFFCURVE",
"111 537 CURVE SMOOTH",
"111 598 OFFCURVE",
"164 606 OFFCURVE",
"179 606 CURVE SMOOTH",
"271 606 OFFCURVE",
"272 495 OFFCURVE",
"272 417 CURVE SMOOTH",
"272 0 LINE"
);
},
{
closed = 1;
nodes = (
"339 -163 OFFCURVE",
"362 -137 OFFCURVE",
"362 -105 CURVE SMOOTH",
"362 -74 OFFCURVE",
"339 -49 OFFCURVE",
"312 -49 CURVE SMOOTH",
"284 -49 OFFCURVE",
"262 -74 OFFCURVE",
"262 -105 CURVE SMOOTH",
"262 -137 OFFCURVE",
"284 -163 OFFCURVE",
"312 -163 CURVE SMOOTH"
);
}
);
width = 440;
}
);
unicode = 1944;
},
{
glyphname = uni1945;
lastChange = "2017-09-12 16:02:21 +0000";
layers = (
{
layerId = UUID0;
paths = (
{
closed = 1;
nodes = (
"242 34 LINE",
"242 354 LINE SMOOTH",
"242 487 OFFCURVE",
"249 606 OFFCURVE",
"320 606 CURVE SMOOTH",
"356 606 OFFCURVE",
"379 576 OFFCURVE",
"379 542 CURVE SMOOTH",
"379 522 OFFCURVE",
"371 502 OFFCURVE",
"355 491 CURVE",
"387 451 LINE",
"414 471 OFFCURVE",
"432 503 OFFCURVE",
"432 541 CURVE SMOOTH",
"432 604 OFFCURVE",
"389 654 OFFCURVE",
"317 654 CURVE SMOOTH",
"224 654 OFFCURVE",
"188 596 OFFCURVE",
"177 534 CURVE",
"154 582 OFFCURVE",
"126 618 OFFCURVE",
"81 654 CURVE",
"59 633 LINE",
"159 540 OFFCURVE",
"162 375 OFFCURVE",
"162 256 CURVE SMOOTH",
"162 0 LINE"
);
},
{
closed = 1;
nodes = (
"229 -163 OFFCURVE",
"252 -137 OFFCURVE",
"252 -105 CURVE SMOOTH",
"252 -74 OFFCURVE",
"229 -49 OFFCURVE",
"202 -49 CURVE SMOOTH",
"174 -49 OFFCURVE",
"152 -74 OFFCURVE",
"152 -105 CURVE SMOOTH",
"152 -137 OFFCURVE",
"174 -163 OFFCURVE",
"202 -163 CURVE SMOOTH"
);
}
);
width = 480;
}
);
unicode = 1945;
},
{
glyphname = uni1946;
lastChange = "2017-09-12 16:02:21 +0000";
layers = (
{
layerId = UUID0;
paths = (
{
closed = 1;
nodes = (
"396 -7 OFFCURVE",
"510 141 OFFCURVE",
"510 298 CURVE SMOOTH",
"510 461 OFFCURVE",
"441 583 OFFCURVE",
"285 583 CURVE SMOOTH",
"165 583 OFFCURVE",
"39 447 OFFCURVE",
"39 268 CURVE SMOOTH",
"39 104 OFFCURVE",
"118 -7 OFFCURVE",
"265 -7 CURVE SMOOTH"
);
},
{
closed = 1;
nodes = (
"167 54 OFFCURVE",
"121 161 OFFCURVE",
"121 288 CURVE SMOOTH",
"121 455 OFFCURVE",
"183 522 OFFCURVE",
"270 522 CURVE SMOOTH",
"358 522 OFFCURVE",
"428 447 OFFCURVE",
"428 288 CURVE SMOOTH",
"428 161 OFFCURVE",
"394 54 OFFCURVE",
"280 54 CURVE SMOOTH"
);
}
);
width = 549;
}
);
unicode = 1946;
},
{
glyphname = uni1947;
lastChange = "2017-09-12 16:02:21 +0000";
layers = (
{
layerId = UUID0;
paths = (
{
closed = 1;
nodes = (
"403 -7 OFFCURVE",
"460 67 OFFCURVE",
"460 138 CURVE SMOOTH",
"460 196 OFFCURVE",
"413 256 OFFCURVE",
"339 256 CURVE SMOOTH",
"273 256 OFFCURVE",
"213 211 OFFCURVE",
"213 125 CURVE SMOOTH",
"213 95 OFFCURVE",
"224 72 OFFCURVE",
"234 56 CURVE",
"156 88 OFFCURVE",
"144 184 OFFCURVE",
"144 267 CURVE SMOOTH",
"144 576 LINE",
"63 542 LINE",
"63 244 LINE SMOOTH",
"63 64 OFFCURVE",
"150 -7 OFFCURVE",
"285 -7 CURVE SMOOTH"
);
},
{
closed = 1;
nodes = (
"289 57 OFFCURVE",
"263 87 OFFCURVE",
"263 125 CURVE SMOOTH",
"263 162 OFFCURVE",
"289 192 OFFCURVE",
"322 192 CURVE SMOOTH",
"354 192 OFFCURVE",
"381 162 OFFCURVE",
"381 125 CURVE SMOOTH",
"381 87 OFFCURVE",
"354 57 OFFCURVE",
"322 57 CURVE SMOOTH"
);
}
);
width = 499;
}
);
unicode = 1947;
},
{
glyphname = uni1948;
lastChange = "2017-09-12 16:02:21 +0000";
layers = (
{
layerId = UUID0;
paths = (
{
closed = 1;
nodes = (
"120 20 LINE",
"133 113 OFFCURVE",
"162 277 OFFCURVE",
"228 462 CURVE",
"275 298 OFFCURVE",
"334 136 OFFCURVE",
"387 -5 CURVE",
"478 15 LINE",
"443 89 OFFCURVE",
"345 335 OFFCURVE",
"268 581 CURVE",
"211 520 LINE",
"127 335 OFFCURVE",
"62 145 OFFCURVE",
"20 -5 CURVE"
);
}
);
width = 497;
}
);
unicode = 1948;
},
{
glyphname = uni1949;
lastChange = "2017-09-12 16:02:21 +0000";
layers = (
{
layerId = UUID0;
paths = (
{
closed = 1;
nodes = (
"254 -7 OFFCURVE",
"422 71 OFFCURVE",
"422 195 CURVE SMOOTH",
"422 380 OFFCURVE",
"121 292 OFFCURVE",
"121 436 CURVE SMOOTH",
"121 468 OFFCURVE",
"141 516 OFFCURVE",
"220 516 CURVE SMOOTH",
"276 516 OFFCURVE",
"311 497 OFFCURVE",
"333 478 CURVE",
"403 536 LINE",
"368 566 OFFCURVE",
"320 583 OFFCURVE",
"251 583 CURVE SMOOTH",
"173 583 OFFCURVE",
"39 504 OFFCURVE",
"39 403 CURVE SMOOTH",
"39 238 OFFCURVE",
"340 315 OFFCURVE",
"340 175 CURVE SMOOTH",
"340 99 OFFCURVE",
"298 60 OFFCURVE",
"219 60 CURVE SMOOTH",
"135 60 OFFCURVE",
"100 103 OFFCURVE",
"81 126 CURVE",
"46 42 LINE",
"82 10 OFFCURVE",
"141 -7 OFFCURVE",
"188 -7 CURVE SMOOTH"
);
}
);
width = 461;
}
);
unicode = 1949;
},
{
glyphname = uni194A;
lastChange = "2017-09-12 16:02:21 +0000";
layers = (
{
layerId = UUID0;
paths = (
{
closed = 1;
nodes = (
"91 0 LINE",
"140 80 OFFCURVE",
"192 161 OFFCURVE",
"246 242 CURVE",
"320 138 OFFCURVE",
"374 49 OFFCURVE",
"407 -5 CURVE",
"480 51 LINE",
"441 112 OFFCURVE",
"372 214 OFFCURVE",
"296 318 CURVE",
"354 404 OFFCURVE",
"414 489 OFFCURVE",
"474 573 CURVE",
"468 580 LINE",
"404 576 LINE",
"359 500 OFFCURVE",
"314 428 OFFCURVE",
"268 357 CURVE",
"207 440 OFFCURVE",
"143 521 OFFCURVE",
"90 581 CURVE",
"20 525 LINE",
"96 440 OFFCURVE",
"162 356 OFFCURVE",
"218 280 CURVE",
"154 183 OFFCURVE",
"89 90 OFFCURVE",
"23 1 CURVE",
"26 -5 LINE"
);
}
);
width = 500;
}
);
unicode = 194A;
},
{
glyphname = uni194B;
lastChange = "2017-09-12 16:02:21 +0000";
layers = (
{
layerId = UUID0;
paths = (
{
closed = 1;
nodes = (
"236 518 OFFCURVE",
"229 498 OFFCURVE",
"229 469 CURVE SMOOTH",
"229 413 OFFCURVE",
"264 368 OFFCURVE",
"330 368 CURVE SMOOTH",
"406 368 OFFCURVE",
"437 427 OFFCURVE",
"437 473 CURVE SMOOTH",
"437 526 OFFCURVE",
"402 583 OFFCURVE",
"310 583 CURVE SMOOTH",
"210 583 OFFCURVE",
"39 456 OFFCURVE",
"39 260 CURVE SMOOTH",
"39 71 OFFCURVE",
"155 -7 OFFCURVE",
"280 -7 CURVE SMOOTH",
"390 -7 OFFCURVE",
"448 63 OFFCURVE",
"448 116 CURVE SMOOTH",
"448 164 OFFCURVE",
"419 213 OFFCURVE",
"353 213 CURVE SMOOTH",
"286 213 OFFCURVE",
"239 171 OFFCURVE",
"239 107 CURVE SMOOTH",
"239 86 OFFCURVE",
"246 66 OFFCURVE",
"253 55 CURVE",
"162 89 OFFCURVE",
"121 149 OFFCURVE",
"121 274 CURVE SMOOTH",
"121 381 OFFCURVE",
"150 482 OFFCURVE",
"243 529 CURVE"
);
},
{
closed = 1;
nodes = (
"299 61 OFFCURVE",
"289 82 OFFCURVE",
"289 105 CURVE SMOOTH",
"289 140 OFFCURVE",
"309 155 OFFCURVE",
"333 155 CURVE SMOOTH",
"358 155 OFFCURVE",
"378 145 OFFCURVE",
"378 110 CURVE SMOOTH",
"378 86 OFFCURVE",
"354 57 OFFCURVE",
"313 57 CURVE"
);
},
{
closed = 1;
nodes = (
"344 524 OFFCURVE",
"368 495 OFFCURVE",
"368 471 CURVE SMOOTH",
"368 437 OFFCURVE",
"348 426 OFFCURVE",
"324 426 CURVE SMOOTH",
"299 426 OFFCURVE",
"279 444 OFFCURVE",
"279 479 CURVE SMOOTH",
"279 502 OFFCURVE",
"289 520 OFFCURVE",
"304 524 CURVE"
);
}
);
width = 487;
}
);
unicode = 194B;
},
{
glyphname = uni194C;
lastChange = "2017-09-12 16:02:21 +0000";
layers = (
{
layerId = UUID0;
paths = (
{
closed = 1;
nodes = (
"337 -39 LINE",
"320 -9 OFFCURVE",
"301 35 OFFCURVE",
"288 84 CURVE",
"382 89 OFFCURVE",
"453 135 OFFCURVE",
"453 220 CURVE SMOOTH",
"453 277 OFFCURVE",
"414 318 OFFCURVE",
"347 318 CURVE SMOOTH",
"275 318 OFFCURVE",
"214 256 OFFCURVE",
"214 192 CURVE SMOOTH",
"214 176 OFFCURVE",
"214 160 OFFCURVE",
"216 144 CURVE",
"156 170 OFFCURVE",
"121 239 OFFCURVE",
"121 326 CURVE SMOOTH",
"121 452 OFFCURVE",
"186 504 OFFCURVE",
"243 504 CURVE SMOOTH",
"386 504 LINE",
"411 576 LINE",
"332 576 LINE SMOOTH",
"156 576 OFFCURVE",
"39 480 OFFCURVE",
"39 317 CURVE SMOOTH",
"39 194 OFFCURVE",
"115 107 OFFCURVE",
"224 88 CURVE",
"236 19 OFFCURVE",
"257 -43 OFFCURVE",
"269 -64 CURVE"
);
},
{
closed = 1;
nodes = (
"273 154 OFFCURVE",
"271 177 OFFCURVE",
"271 199 CURVE SMOOTH",
"271 242 OFFCURVE",
"295 270 OFFCURVE",
"327 270 CURVE SMOOTH",
"359 270 OFFCURVE",
"381 250 OFFCURVE",
"381 209 CURVE SMOOTH",
"381 182 OFFCURVE",
"372 133 OFFCURVE",
"277 132 CURVE"
);
}
);
width = 492;
}
);
unicode = 194C;
},
{
glyphname = uni194D;
lastChange = "2017-09-12 16:02:21 +0000";
layers = (
{
layerId = UUID0;
paths = (
{
closed = 1;
nodes = (
"284 -7 OFFCURVE",
"452 72 OFFCURVE",
"452 170 CURVE SMOOTH",
"452 252 OFFCURVE",
"371 290 OFFCURVE",
"291 326 CURVE",
"368 384 OFFCURVE",
"443 445 OFFCURVE",
"453 513 CURVE",
"375 491 LINE",
"354 439 OFFCURVE",
"306 390 OFFCURVE",
"253 344 CURVE",
"192 374 OFFCURVE",
"141 407 OFFCURVE",
"141 465 CURVE SMOOTH",
"141 497 OFFCURVE",
"166 541 OFFCURVE",
"245 541 CURVE SMOOTH",
"251 541 OFFCURVE",
"257 541 OFFCURVE",
"263 540 CURVE",
"308 584 LINE",
"299 583 OFFCURVE",
"291 583 OFFCURVE",
"281 583 CURVE SMOOTH",
"203 583 OFFCURVE",
"59 533 OFFCURVE",
"59 433 CURVE SMOOTH",
"59 360 OFFCURVE",
"118 320 OFFCURVE",
"185 288 CURVE",
"108 226 OFFCURVE",
"39 169 OFFCURVE",
"39 118 CURVE SMOOTH",
"39 34 OFFCURVE",
"117 -7 OFFCURVE",
"217 -7 CURVE SMOOTH"
);
},
{
closed = 1;
nodes = (
"192 60 OFFCURVE",
"121 70 OFFCURVE",
"121 139 CURVE SMOOTH",
"121 184 OFFCURVE",
"165 227 OFFCURVE",
"220 271 CURVE",
"296 236 OFFCURVE",
"370 208 OFFCURVE",
"370 150 CURVE SMOOTH",
"370 98 OFFCURVE",
"328 60 OFFCURVE",
"249 60 CURVE SMOOTH"
);
}
);
width = 492;
}
);
unicode = 194D;
},
{
glyphname = uni194E;
lastChange = "2017-09-12 16:02:21 +0000";
layers = (
{
layerId = UUID0;
paths = (
{
closed = 1;
nodes = (
"286 56 LINE",
"370 241 OFFCURVE",
"435 431 OFFCURVE",
"478 581 CURVE",
"377 557 LINE",
"364 463 OFFCURVE",
"335 299 OFFCURVE",
"270 113 CURVE",
"222 278 OFFCURVE",
"163 439 OFFCURVE",
"110 581 CURVE",
"20 562 LINE",
"54 487 OFFCURVE",
"152 241 OFFCURVE",
"229 -5 CURVE"
);
}
);
width = 497;
}
);
unicode = 194E;
},
{
glyphname = uni194F;
lastChange = "2017-09-12 16:02:21 +0000";
layers = (
{
layerId = UUID0;
paths = (
{
closed = 1;
nodes = (
"330 15 LINE",
"350 148 OFFCURVE",
"404 352 OFFCURVE",
"482 576 CURVE",
"102 576 LINE",
"29 504 LINE",
"57 438 OFFCURVE",
"96 334 OFFCURVE",
"138 214 CURVE",
"221 261 LINE",
"242 334 OFFCURVE",
"275 424 OFFCURVE",
"303 504 CURVE",
"416 504 LINE",
"335 323 OFFCURVE",
"272 141 OFFCURVE",
"230 -5 CURVE"
);
},
{
closed = 1;
nodes = (
"164 387 OFFCURVE",
"143 447 OFFCURVE",
"121 504 CURVE",
"260 504 LINE",
"233 444 OFFCURVE",
"208 384 OFFCURVE",
"185 326 CURVE"
);
}
);
width = 492;
}
);
unicode = 194F;
},
{
glyphname = doubledanda;
lastChange = "2017-09-12 16:02:21 +0000";
layers = (
{
layerId = UUID0;
paths = (
{
closed = 1;
nodes = (
"227 20 LINE",
"227 591 LINE",
"146 557 LINE",
"146 -15 LINE"
);
},
{
closed = 1;
nodes = (
"393 20 LINE",
"393 591 LINE",
"313 557 LINE",
"313 -15 LINE"
);
}
);
width = 539;
}
);
unicode = 0965;
},
{
glyphname = uni1902;
lastChange = "2017-09-12 16:02:21 +0000";
layers = (
{
layerId = UUID0;
paths = (
{
closed = 1;
nodes = (
"313 -7 OFFCURVE",
"377 47 OFFCURVE",
"417 93 CURVE",
"438 32 OFFCURVE",
"481 -7 OFFCURVE",
"537 -7 CURVE SMOOTH",
"606 -7 OFFCURVE",
"642 42 OFFCURVE",
"671 82 CURVE",
"649 104 LINE",
"618 68 OFFCURVE",
"599 65 OFFCURVE",
"574 65 CURVE SMOOTH",
"525 65 OFFCURVE",
"483 99 OFFCURVE",
"483 203 CURVE SMOOTH",
"483 359 OFFCURVE",
"555 440 OFFCURVE",
"617 504 CURVE",
"642 576 LINE",
"201 576 LINE",
"115 489 OFFCURVE",
"39 376 OFFCURVE",
"39 230 CURVE SMOOTH",
"39 72 OFFCURVE",
"120 -7 OFFCURVE",
"227 -7 CURVE SMOOTH"
);
},
{
closed = 1;
nodes = (
"178 65 OFFCURVE",
"121 111 OFFCURVE",
"121 251 CURVE SMOOTH",
"121 334 OFFCURVE",
"149 430 OFFCURVE",
"206 504 CURVE",
"564 504 LINE",
"466 416 OFFCURVE",
"401 292 OFFCURVE",
"401 189 CURVE SMOOTH",
"401 171 OFFCURVE",
"403 154 OFFCURVE",
"405 137 CURVE",
"372 100 OFFCURVE",
"323 65 OFFCURVE",
"252 65 CURVE SMOOTH"
);
}
);
width = 701;
}
);
unicode = 1902;
},
{
glyphname = uni1900;
lastChange = "2017-09-12 16:02:21 +0000";
layers = (
{
layerId = UUID0;
paths = (
{
closed = 1;
nodes = (
"110 28 OFFCURVE",
"217 63 OFFCURVE",
"327 63 CURVE SMOOTH",
"406 63 OFFCURVE",
"475 51 OFFCURVE",
"526 0 CURVE",
"601 34 LINE",
"601 576 LINE",
"49 576 LINE",
"24 504 LINE",
"254 504 LINE",
"47 271 LINE",
"239 271 LINE",
"5 15 LINE",
"14 -4 LINE"
);
},
{
closed = 1;
nodes = (
"484 114 OFFCURVE",
"415 135 OFFCURVE",
"336 135 CURVE SMOOTH",
"274 135 OFFCURVE",
"197 121 OFFCURVE",
"138 90 CURVE",
"351 323 LINE",
"155 323 LINE",
"320 504 LINE",
"521 504 LINE",
"521 89 LINE"
);
}
);
width = 674;
}
);
unicode = 1900;
},
{
glyphname = uni1901;
lastChange = "2017-09-12 16:02:21 +0000";
layers = (
{
layerId = UUID0;
paths = (
{
closed = 1;
nodes = (
"542 0 LINE",
"566 72 LINE",
"158 72 LINE",
"251 215 OFFCURVE",
"421 416 OFFCURVE",
"556 542 CURVE",
"563 576 LINE",
"63 576 LINE",
"39 504 LINE",
"452 504 LINE",
"303 370 OFFCURVE",
"188 244 OFFCURVE",
"60 72 CURVE",
"43 0 LINE"
);
}
);
width = 605;
}
);
unicode = 1901;
},
{
glyphname = uni192A1922;
lastChange = "2017-09-12 16:02:21 +0000";
layers = (
{
layerId = UUID0;
paths = (
{
closed = 1;
nodes = (
"-238 -124 OFFCURVE",
"-211 -107 OFFCURVE",
"-187 -91 CURVE SMOOTH",
"-164 -75 OFFCURVE",
"-142 -59 OFFCURVE",
"-132 -50 CURVE",
"-124 -75 OFFCURVE",
"-100 -98 OFFCURVE",
"-72 -117 CURVE SMOOTH",
"-44 -136 OFFCURVE",
"-12 -151 OFFCURVE",
"11 -159 CURVE",
"51 -92 LINE",
"26 -85 OFFCURVE",
"-7 -74 OFFCURVE",
"-36 -57 CURVE SMOOTH",
"-64 -40 OFFCURVE",
"-88 -17 OFFCURVE",
"-92 14 CURVE",
"-112 23 LINE",
"-138 -5 OFFCURVE",
"-170 -31 OFFCURVE",
"-199 -51 CURVE SMOOTH",
"-229 -71 OFFCURVE",
"-256 -87 OFFCURVE",
"-272 -95 CURVE",
"-254 -132 LINE"
);
},
{
closed = 1;
nodes = (
"121 -43 OFFCURVE",
"99 -96 OFFCURVE",
"66 -138 CURVE SMOOTH",
"34 -179 OFFCURVE",
"-9 -209 OFFCURVE",
"-72 -217 CURVE",
"-70 -211 OFFCURVE",
"-69 -204 OFFCURVE",
"-69 -198 CURVE SMOOTH",
"-69 -156 OFFCURVE",
"-104 -111 OFFCURVE",
"-151 -111 CURVE SMOOTH",
"-203 -111 OFFCURVE",
"-240 -148 OFFCURVE",
"-240 -198 CURVE SMOOTH",
"-240 -256 OFFCURVE",
"-185 -293 OFFCURVE",
"-110 -293 CURVE SMOOTH",
"-9 -293 OFFCURVE",
"67 -230 OFFCURVE",
"119 -135 CURVE SMOOTH",
"145 -88 OFFCURVE",
"163 -38 OFFCURVE",
"176 15 CURVE",
"140 11 LINE"
);
},
{
closed = 1;
nodes = (
"-124 -211 OFFCURVE",
"-137 -225 OFFCURVE",
"-155 -225 CURVE SMOOTH",
"-172 -225 OFFCURVE",
"-186 -211 OFFCURVE",
"-186 -194 CURVE SMOOTH",
"-186 -177 OFFCURVE",
"-172 -163 OFFCURVE",
"-155 -163 CURVE SMOOTH",
"-137 -163 OFFCURVE",
"-124 -177 OFFCURVE",
"-124 -194 CURVE SMOOTH"
);
}
);
width = 0;
}
);
note = uni192A1922;
},
{
glyphname = uni25CC;
lastChange = "2017-09-12 16:02:21 +0000";
layers = (
{
layerId = UUID0;
paths = (
{
closed = 1;
nodes = (
"623 402 OFFCURVE",
"638 416 OFFCURVE",
"638 442 CURVE SMOOTH",
"638 469 OFFCURVE",
"623 482 OFFCURVE",
"597 482 CURVE SMOOTH",
"571 482 OFFCURVE",
"559 469 OFFCURVE",
"559 442 CURVE SMOOTH",
"559 416 OFFCURVE",
"571 402 OFFCURVE",
"597 402 CURVE SMOOTH"
);
},
{
closed = 1;
nodes = (
"249 27 OFFCURVE",
"263 41 OFFCURVE",
"263 67 CURVE SMOOTH",
"263 94 OFFCURVE",
"249 107 OFFCURVE",
"223 107 CURVE SMOOTH",
"196 107 OFFCURVE",
"184 94 OFFCURVE",
"184 67 CURVE SMOOTH",
"184 41 OFFCURVE",
"196 27 OFFCURVE",
"223 27 CURVE SMOOTH"
);
},
{
closed = 1;
nodes = (
"147 130 OFFCURVE",
"162 144 OFFCURVE",
"162 170 CURVE SMOOTH",
"162 197 OFFCURVE",
"147 209 OFFCURVE",
"122 209 CURVE SMOOTH",
"95 209 OFFCURVE",
"83 197 OFFCURVE",
"83 170 CURVE SMOOTH",
"83 144 OFFCURVE",
"95 130 OFFCURVE",
"122 130 CURVE SMOOTH"
);
},
{
closed = 1;
nodes = (
"386 -7 OFFCURVE",
"400 7 OFFCURVE",
"400 33 CURVE SMOOTH",
"400 60 OFFCURVE",
"386 73 OFFCURVE",
"360 73 CURVE SMOOTH",
"333 73 OFFCURVE",
"321 60 OFFCURVE",
"321 33 CURVE SMOOTH",
"321 7 OFFCURVE",
"333 -7 OFFCURVE",
"360 -7 CURVE SMOOTH"
);
},
{
closed = 1;
nodes = (
"113 266 OFFCURVE",
"128 280 OFFCURVE",
"128 306 CURVE SMOOTH",
"128 333 OFFCURVE",
"113 346 OFFCURVE",
"87 346 CURVE SMOOTH",
"61 346 OFFCURVE",
"49 333 OFFCURVE",
"49 306 CURVE SMOOTH",
"49 280 OFFCURVE",
"61 266 OFFCURVE",
"87 266 CURVE SMOOTH"
);
},
{
closed = 1;
nodes = (
"521 27 OFFCURVE",
"536 41 OFFCURVE",
"536 67 CURVE SMOOTH",
"536 94 OFFCURVE",
"521 107 OFFCURVE",
"496 107 CURVE SMOOTH",
"469 107 OFFCURVE",
"457 94 OFFCURVE",
"457 67 CURVE SMOOTH",
"457 41 OFFCURVE",
"469 27 OFFCURVE",
"496 27 CURVE SMOOTH"
);
},
{
closed = 1;
nodes = (
"147 403 OFFCURVE",
"162 417 OFFCURVE",
"162 443 CURVE SMOOTH",
"162 470 OFFCURVE",
"147 482 OFFCURVE",
"122 482 CURVE SMOOTH",
"95 482 OFFCURVE",
"83 470 OFFCURVE",
"83 443 CURVE SMOOTH",
"83 417 OFFCURVE",
"95 403 OFFCURVE",
"122 403 CURVE SMOOTH"
);
},
{
closed = 1;
nodes = (
"623 129 OFFCURVE",
"637 143 OFFCURVE",
"637 169 CURVE SMOOTH",
"637 196 OFFCURVE",
"623 208 OFFCURVE",
"597 208 CURVE SMOOTH",
"570 208 OFFCURVE",
"558 196 OFFCURVE",
"558 169 CURVE SMOOTH",
"558 143 OFFCURVE",
"570 129 OFFCURVE",
"597 129 CURVE SMOOTH"
);
},
{
closed = 1;
nodes = (
"249 504 OFFCURVE",
"264 518 OFFCURVE",
"264 544 CURVE SMOOTH",
"264 571 OFFCURVE",
"249 583 OFFCURVE",
"223 583 CURVE SMOOTH",
"197 583 OFFCURVE",
"185 571 OFFCURVE",
"185 544 CURVE SMOOTH",
"185 518 OFFCURVE",
"197 504 OFFCURVE",
"223 504 CURVE SMOOTH"
);
},
{
closed = 1;
nodes = (
"658 266 OFFCURVE",
"672 279 OFFCURVE",
"672 306 CURVE SMOOTH",
"672 333 OFFCURVE",
"658 345 OFFCURVE",
"632 345 CURVE SMOOTH",
"605 345 OFFCURVE",
"593 333 OFFCURVE",
"593 306 CURVE SMOOTH",
"593 279 OFFCURVE",
"605 266 OFFCURVE",
"632 266 CURVE SMOOTH"
);
},
{
closed = 1;
nodes = (
"388 542 OFFCURVE",
"403 556 OFFCURVE",
"403 583 CURVE SMOOTH",
"403 609 OFFCURVE",
"388 622 OFFCURVE",
"362 622 CURVE SMOOTH",
"336 622 OFFCURVE",
"324 609 OFFCURVE",
"324 583 CURVE SMOOTH",
"324 556 OFFCURVE",
"336 542 OFFCURVE",
"362 542 CURVE SMOOTH"
);
},
{
closed = 1;
nodes = (
"521 504 OFFCURVE",
"536 518 OFFCURVE",
"536 544 CURVE SMOOTH",
"536 571 OFFCURVE",
"521 584 OFFCURVE",
"496 584 CURVE SMOOTH",
"469 584 OFFCURVE",
"457 571 OFFCURVE",
"457 544 CURVE SMOOTH",
"457 518 OFFCURVE",
"469 504 OFFCURVE",
"496 504 CURVE SMOOTH"
);
}
